<?xml version="1.0" standalone="yes"?>

<svg version="1.1" viewBox="0.0 0.0 960.0 720.0" fill="none" stroke="none" stroke-linecap="square" stroke-miterlimit="10" xmlns="http://www.w3.org/2000/svg" xmlns:xlink="http://www.w3.org/1999/xlink"><clipPath id="p.0"><path d="m0 0l960.0 0l0 720.0l-960.0 0l0 -720.0z" clip-rule="nonzero"></path></clipPath><g clip-path="url(#p.0)"><path fill="#000000" fill-opacity="0.0" d="m0 0l960.0 0l0 720.0l-960.0 0z" fill-rule="nonzero"></path><path fill="#cfe2f3" d="m255.87401 201.2559l0 0c0 -13.522278 20.779984 -24.484253 46.413406 -24.484253c25.633392 0 46.41336 10.961975 46.41336 24.484253l0 97.937c0 13.522278 -20.779968 24.484253 -46.41336 24.484253c-25.633423 0 -46.413406 -10.961975 -46.413406 -24.484253z" fill-rule="nonzero"></path><path fill="#000000" fill-opacity="0.0" d="m348.70078 201.2559l0 0c0 13.522278 -20.779968 24.484253 -46.41336 24.484253c-25.633423 0 -46.413406 -10.961975 -46.413406 -24.484253" fill-rule="nonzero"></path><path fill="#000000" fill-opacity="0.0" d="m255.87401 201.2559l0 0c0 -13.522278 20.779984 -24.484253 46.413406 -24.484253c25.633392 0 46.41336 10.961975 46.41336 24.484253l0 97.937c0 13.522278 -20.779968 24.484253 -46.41336 24.484253c-25.633423 0 -46.413406 -10.961975 -46.413406 -24.484253z" fill-rule="nonzero"></path><path stroke="#000000" stroke-width="1.0" stroke-linejoin="round" stroke-linecap="butt" d="m348.70078 201.2559l0 0c0 13.522278 -20.779968 24.484253 -46.41336 24.484253c-25.633423 0 -46.413406 -10.961975 -46.413406 -24.484253" fill-rule="nonzero"></path><path stroke="#000000" stroke-width="1.0" stroke-linejoin="round" stroke-linecap="butt" d="m255.87401 201.2559l0 0c0 -13.522278 20.779984 -24.484253 46.413406 -24.484253c25.633392 0 46.41336 10.961975 46.41336 24.484253l0 97.937c0 13.522278 -20.779968 24.484253 -46.41336 24.484253c-25.633423 0 -46.413406 -10.961975 -46.413406 -24.484253z" fill-rule="nonzero"></path><path fill="#cfe2f3" d="m497.8819 201.2559l0 0c0 -13.522278 20.779968 -24.484253 46.41339 -24.484253c25.633423 0 46.41339 10.961975 46.41339 24.484253l0 97.937c0 13.522278 -20.779968 24.484253 -46.41339 24.484253c-25.633423 0 -46.41339 -10.961975 -46.41339 -24.484253z" fill-rule="nonzero"></path><path fill="#000000" fill-opacity="0.0" d="m590.7087 201.2559l0 0c0 13.522278 -20.779968 24.484253 -46.41339 24.484253c-25.633423 0 -46.41339 -10.961975 -46.41339 -24.484253" fill-rule="nonzero"></path><path fill="#000000" fill-opacity="0.0" d="m497.8819 201.2559l0 0c0 -13.522278 20.779968 -24.484253 46.41339 -24.484253c25.633423 0 46.41339 10.961975 46.41339 24.484253l0 97.937c0 13.522278 -20.779968 24.484253 -46.41339 24.484253c-25.633423 0 -46.41339 -10.961975 -46.41339 -24.484253z" fill-rule="nonzero"></path><path stroke="#000000" stroke-width="1.0" stroke-linejoin="round" stroke-linecap="butt" d="m590.7087 201.2559l0 0c0 13.522278 -20.779968 24.484253 -46.41339 24.484253c-25.633423 0 -46.41339 -10.961975 -46.41339 -24.484253" fill-rule="nonzero"></path><path stroke="#000000" stroke-width="1.0" stroke-linejoin="round" stroke-linecap="butt" d="m497.8819 201.2559l0 0c0 -13.522278 20.779968 -24.484253 46.41339 -24.484253c25.633423 0 46.41339 10.961975 46.41339 24.484253l0 97.937c0 13.522278 -20.779968 24.484253 -46.41339 24.484253c-25.633423 0 -46.41339 -10.961975 -46.41339 -24.484253z" fill-rule="nonzero"></path><path fill="#cfe2f3" d="m255.87401 448.77298l0 0c0 -13.522278 20.779984 -24.484253 46.413406 -24.484253c25.633392 0 46.41336 10.961975 46.41336 24.484253l0 97.93698c0 13.522278 -20.779968 24.484253 -46.41336 24.484253c-25.633423 0 -46.413406 -10.961975 -46.413406 -24.484253z" fill-rule="nonzero"></path><path fill="#000000" fill-opacity="0.0" d="m348.70078 448.77298l0 0c0 13.522278 -20.779968 24.484253 -46.41336 24.484253c-25.633423 0 -46.413406 -10.961975 -46.413406 -24.484253" fill-rule="nonzero"></path><path fill="#000000" fill-opacity="0.0" d="m255.87401 448.77298l0 0c0 -13.522278 20.779984 -24.484253 46.413406 -24.484253c25.633392 0 46.41336 10.961975 46.41336 24.484253l0 97.93698c0 13.522278 -20.779968 24.484253 -46.41336 24.484253c-25.633423 0 -46.413406 -10.961975 -46.413406 -24.484253z" fill-rule="nonzero"></path><path stroke="#000000" stroke-width="1.0" stroke-linejoin="round" stroke-linecap="butt" d="m348.70078 448.77298l0 0c0 13.522278 -20.779968 24.484253 -46.41336 24.484253c-25.633423 0 -46.413406 -10.961975 -46.413406 -24.484253" fill-rule="nonzero"></path><path stroke="#000000" stroke-width="1.0" stroke-linejoin="round" stroke-linecap="butt" d="m255.87401 448.77298l0 0c0 -13.522278 20.779984 -24.484253 46.413406 -24.484253c25.633392 0 46.41336 10.961975 46.41336 24.484253l0 97.93698c0 13.522278 -20.779968 24.484253 -46.41336 24.484253c-25.633423 0 -46.413406 -10.961975 -46.413406 -24.484253z" fill-rule="nonzero"></path><path fill="#cfe2f3" d="m497.8819 448.77298l0 0c0 -13.522278 20.779968 -24.484253 46.41339 -24.484253c25.633423 0 46.41339 10.961975 46.41339 24.484253l0 97.93698c0 13.522278 -20.779968 24.484253 -46.41339 24.484253c-25.633423 0 -46.41339 -10.961975 -46.41339 -24.484253z" fill-rule="nonzero"></path><path fill="#000000" fill-opacity="0.0" d="m590.7087 448.77298l0 0c0 13.522278 -20.779968 24.484253 -46.41339 24.484253c-25.633423 0 -46.41339 -10.961975 -46.41339 -24.484253" fill-rule="nonzero"></path><path fill="#000000" fill-opacity="0.0" d="m497.8819 448.77298l0 0c0 -13.522278 20.779968 -24.484253 46.41339 -24.484253c25.633423 0 46.41339 10.961975 46.41339 24.484253l0 97.93698c0 13.522278 -20.779968 24.484253 -46.41339 24.484253c-25.633423 0 -46.41339 -10.961975 -46.41339 -24.484253z" fill-rule="nonzero"></path><path stroke="#000000" stroke-width="1.0" stroke-linejoin="round" stroke-linecap="butt" d="m590.7087 448.77298l0 0c0 13.522278 -20.779968 24.484253 -46.41339 24.484253c-25.633423 0 -46.41339 -10.961975 -46.41339 -24.484253" fill-rule="nonzero"></path><path stroke="#000000" stroke-width="1.0" stroke-linejoin="round" stroke-linecap="butt" d="m497.8819 448.77298l0 0c0 -13.522278 20.779968 -24.484253 46.41339 -24.484253c25.633423 0 46.41339 10.961975 46.41339 24.484253l0 97.93698c0 13.522278 -20.779968 24.484253 -46.41339 24.484253c-25.633423 0 -46.41339 -10.961975 -46.41339 -24.484253z" fill-rule="nonzero"></path><path fill="#cfe2f3" d="m84.75328 243.35957l146.07874 0l0 -5.244095l10.48819 10.48819l-10.48819 10.48819l0 -5.244095l-146.07874 0z" fill-rule="nonzero"></path><path stroke="#000000" stroke-width="1.0" stroke-linejoin="round" stroke-linecap="butt" d="m84.75328 243.35957l146.07874 0l0 -5.244095l10.48819 10.48819l-10.48819 10.48819l0 -5.244095l-146.07874 0z" fill-rule="nonzero"></path><path fill="#000000" fill-opacity="0.0" d="m84.75328 196.95013l143.65355 0l0 41.165344l-143.65355 0z" fill-rule="nonzero"></path><path fill="#000000" d="m95.00328 227.65138l0 -13.640625l1.53125 0l0 1.28125q0.53125 -0.75 1.203125 -1.125q0.6875 -0.375 1.640625 -0.375q1.265625 0 2.234375 0.65625q0.96875 0.640625 1.453125 1.828125q0.5 1.1875 0.5 2.59375q0 1.515625 -0.546875 2.734375q-0.546875 1.203125 -1.578125 1.84375q-1.03125 0.640625 -2.171875 0.640625q-0.84375 0 -1.515625 -0.34375q-0.65625 -0.359375 -1.078125 -0.890625l0 4.796875l-1.671875 0zm1.515625 -8.65625q0 1.90625 0.765625 2.8125q0.78125 0.90625 1.875 0.90625q1.109375 0 1.890625 -0.9375q0.796875 -0.9375 0.796875 -2.921875q0 -1.875 -0.78125 -2.8125q-0.765625 -0.9375 -1.84375 -0.9375q-1.0625 0 -1.890625 1.0q-0.8125 1.0 -0.8125 2.890625zm15.313217 4.875l0 -1.453125q-1.140625 1.671875 -3.125 1.671875q-0.859375 0 -1.625 -0.328125q-0.75 -0.34375 -1.125 -0.84375q-0.359375 -0.5 -0.515625 -1.234375q-0.09375 -0.5 -0.09375 -1.5625l0 -6.109375l1.671875 0l0 5.46875q0 1.3125 0.09375 1.765625q0.15625 0.65625 0.671875 1.03125q0.515625 0.375 1.265625 0.375q0.75 0 1.40625 -0.375q0.65625 -0.390625 0.921875 -1.046875q0.28125 -0.671875 0.28125 -1.9375l0 -5.28125l1.671875 0l0 9.859375l-1.5 0zm7.578842 -1.5l0.234375 1.484375q-0.703125 0.140625 -1.265625 0.140625q-0.90625 0 -1.40625 -0.28125q-0.5 -0.296875 -0.703125 -0.75q-0.203125 -0.46875 -0.203125 -1.984375l0 -5.65625l-1.234375 0l0 -1.3125l1.234375 0l0 -2.4375l1.65625 -1.0l0 3.4375l1.6875 0l0 1.3125l-1.6875 0l0 5.75q0 0.71875 0.078125 0.921875q0.09375 0.203125 0.296875 0.328125q0.203125 0.125 0.578125 0.125q0.265625 0 0.734375 -0.078125zm4.714554 5.5q-1.375 -1.75 -2.328125 -4.078125q-0.953125 -2.34375 -0.953125 -4.84375q0 -2.21875 0.703125 -4.234375q0.84375 -2.34375 2.578125 -4.671875l1.203125 0q-1.125 1.921875 -1.484375 2.75q-0.5625 1.28125 -0.890625 2.671875q-0.40625 1.734375 -0.40625 3.484375q0 4.46875 2.78125 8.921875l-1.203125 0zm3.165802 -4.0l0 -13.59375l1.796875 0l0 6.734375l6.765625 -6.734375l2.4375 0l-5.703125 5.5l5.953125 8.09375l-2.375 0l-4.84375 -6.890625l-2.234375 2.171875l0 4.71875l-1.796875 0zm12.740448 0l0 -1.90625l1.90625 0l0 1.90625q0 1.046875 -0.375 1.6875q-0.375 0.65625 -1.171875 1.0l-0.46875 -0.71875q0.53125 -0.21875 0.78125 -0.671875q0.25 -0.453125 0.28125 -1.296875l-0.953125 0zm14.038483 0l-5.28125 -13.59375l1.953125 0l3.53125 9.875q0.4375 1.1875 0.71875 2.21875q0.3125 -1.109375 0.734375 -2.21875l3.671875 -9.875l1.84375 0l-5.328125 13.59375l-1.84375 0zm9.427948 4.0l-1.1875 0q2.765625 -4.453125 2.765625 -8.921875q0 -1.734375 -0.390625 -3.453125q-0.328125 -1.390625 -0.890625 -2.671875q-0.359375 -0.84375 -1.484375 -2.78125l1.1875 0q1.75 2.328125 2.578125 4.671875q0.71875 2.015625 0.71875 4.234375q0 2.5 -0.96875 4.84375q-0.953125 2.328125 -2.328125 4.078125z" fill-rule="nonzero"></path><path fill="#000000" fill-opacity="0.0" d="m348.70078 250.22441c12.5 0 26.428314 34.67943 24.99997 61.87889c-1.4283447 27.199463 -18.213379 46.918915 -35.712585 61.878906c-17.499176 14.959991 -35.712555 25.160461 -35.712555 50.320953" fill-rule="nonzero"></path><path stroke="#000000" stroke-width="2.0" stroke-linejoin="round" stroke-linecap="butt" d="m348.70078 250.22441c12.5 0 26.428314 34.67943 24.99997 61.87889c-1.4283447 27.199463 -18.213379 46.918915 -35.712585 61.878906c-8.749603 7.4799805 -17.677734 13.770081 -24.418488 21.335297c-3.3703613 3.7825623 -6.193878 7.8839417 -8.174835 12.612152c-0.49520874 1.1820679 -0.93777466 2.4033203 -1.3230591 3.6685486c-0.048187256 0.15814209 -0.09542847 0.31698608 -0.14181519 0.47650146l-0.093688965 0.33035278" fill-rule="evenodd"></path><path fill="#000000" stroke="#000000" stroke-width="2.0" stroke-linecap="butt" d="m300.56085 411.97543l2.0950012 9.428741l4.455841 -8.569458z" fill-rule="evenodd"></path><path fill="#000000" fill-opacity="0.0" d="m348.70078 250.22441c97.79529 0 195.59055 87.03938 195.59055 174.07875" fill-rule="nonzero"></path><path stroke="#000000" stroke-width="2.0" stroke-linejoin="round" stroke-linecap="butt" d="m348.70078 250.22441c48.897644 0 97.79529 21.759842 134.4685 54.399612c18.33664 16.319885 33.617157 35.35974 44.313507 55.759583c5.3481445 10.199921 9.550293 20.739838 12.415405 31.449768c1.4325562 5.3549805 2.5308228 10.752411 3.270996 16.171143c0.18499756 1.3547058 0.34765625 2.7106628 0.48760986 4.067688l0.024353027 0.24649048" fill-rule="evenodd"></path><path fill="#000000" stroke="#000000" stroke-width="2.0" stroke-linecap="butt" d="m540.38196 412.48666l3.7606812 8.896454l2.8377075 -9.232422z" fill-rule="evenodd"></path><path fill="#000000" fill-opacity="0.0" d="m287.3596 181.57742l29.858246 0l0 41.16536l-29.858246 0z" fill-rule="nonzero"></path><path fill="#000000" d="m296.32834 208.49742l5.234375 -13.59375l1.9375 0l5.5625 13.59375l-2.046875 0l-1.59375 -4.125l-5.6875 0l-1.484375 4.125l-1.921875 0zm3.921875 -5.578125l4.609375 0l-1.40625 -3.78125q-0.65625 -1.703125 -0.96875 -2.8125q-0.265625 1.3125 -0.734375 2.59375l-1.5 4.0z" fill-rule="nonzero"></path><path fill="#000000" fill-opacity="0.0" d="m528.1575 181.57742l29.858276 0l0 41.16536l-29.858276 0z" fill-rule="nonzero"></path><path fill="#000000" d="m538.5481 208.49742l0 -13.59375l5.109375 0q1.546875 0 2.484375 0.40625q0.953125 0.40625 1.484375 1.265625q0.53125 0.859375 0.53125 1.796875q0 0.875 -0.46875 1.65625q-0.46875 0.765625 -1.4375 1.234375q1.234375 0.359375 1.890625 1.234375q0.671875 0.875 0.671875 2.0625q0 0.953125 -0.40625 1.78125q-0.390625 0.8125 -0.984375 1.265625q-0.59375 0.4375 -1.5 0.671875q-0.890625 0.21875 -2.1875 0.21875l-5.1875 0zm1.796875 -7.890625l2.9375 0q1.203125 0 1.71875 -0.15625q0.6875 -0.203125 1.03125 -0.671875q0.359375 -0.46875 0.359375 -1.1875q0 -0.671875 -0.328125 -1.1875q-0.328125 -0.515625 -0.9375 -0.703125q-0.59375 -0.203125 -2.0625 -0.203125l-2.71875 0l0 4.109375zm0 6.28125l3.390625 0q0.875 0 1.21875 -0.0625q0.625 -0.109375 1.046875 -0.359375q0.421875 -0.265625 0.6875 -0.765625q0.265625 -0.5 0.265625 -1.140625q0 -0.765625 -0.390625 -1.328125q-0.390625 -0.5625 -1.078125 -0.78125q-0.6875 -0.234375 -1.984375 -0.234375l-3.15625 0l0 4.671875z" fill-rule="nonzero"></path><path fill="#000000" fill-opacity="0.0" d="m287.35828 431.4908l29.858246 0l0 41.165344l-29.858246 0z" fill-rule="nonzero"></path><path fill="#000000" d="m307.53015 453.64517l1.796875 0.453125q-0.5625 2.21875 -2.03125 3.390625q-1.46875 1.15625 -3.59375 1.15625q-2.203125 0 -3.578125 -0.890625q-1.375 -0.90625 -2.09375 -2.59375q-0.71875 -1.703125 -0.71875 -3.65625q0 -2.125 0.796875 -3.703125q0.8125 -1.578125 2.3125 -2.390625q1.5 -0.828125 3.296875 -0.828125q2.046875 0 3.4375 1.046875q1.390625 1.03125 1.9375 2.90625l-1.765625 0.421875q-0.46875 -1.484375 -1.375 -2.15625q-0.90625 -0.6875 -2.265625 -0.6875q-1.5625 0 -2.625 0.75q-1.046875 0.75 -1.484375 2.03125q-0.421875 1.265625 -0.421875 2.609375q0 1.734375 0.5 3.03125q0.515625 1.28125 1.578125 1.921875q1.078125 0.640625 2.3125 0.640625q1.515625 0 2.5625 -0.859375q1.046875 -0.875 1.421875 -2.59375z" fill-rule="nonzero"></path><path fill="#000000" fill-opacity="0.0" d="m528.1575 432.43832l29.858276 0l0 41.165344l-29.858276 0z" fill-rule="nonzero"></path><path fill="#000000" d="m538.6262 459.3583l0 -13.59375l4.6875 0q1.578125 0 2.421875 0.1875q1.15625 0.265625 1.984375 0.96875q1.078125 0.921875 1.609375 2.34375q0.53125 1.40625 0.53125 3.21875q0 1.546875 -0.359375 2.75q-0.359375 1.1875 -0.921875 1.984375q-0.5625 0.78125 -1.234375 1.234375q-0.671875 0.4375 -1.625 0.671875q-0.953125 0.234375 -2.1875 0.234375l-4.90625 0zm1.796875 -1.609375l2.90625 0q1.34375 0 2.109375 -0.25q0.765625 -0.25 1.21875 -0.703125q0.640625 -0.640625 1.0 -1.71875q0.359375 -1.078125 0.359375 -2.625q0 -2.125 -0.703125 -3.265625q-0.703125 -1.15625 -1.703125 -1.546875q-0.71875 -0.28125 -2.328125 -0.28125l-2.859375 0l0 10.390625z" fill-rule="nonzero"></path><path fill="#000000" fill-opacity="0.0" d="m257.4882 291.39108l83.1496 0l0 25.070862l-83.1496 0z" fill-rule="nonzero"></path><path fill="#000000" fill-opacity="0.0" d="m348.70078 250.22441c37.2955 0 55.941376 0.01574707 74.59097 0.03149414c18.649597 0.01574707 37.302948 0.03149414 74.605896 0.03149414" fill-rule="nonzero"></path><path stroke="#000000" stroke-width="2.0" stroke-linejoin="round" stroke-linecap="butt" d="m348.70078 250.22441c37.2955 0 55.941376 0.01574707 74.59097 0.03149414c9.324799 0.007873535 18.650543 0.01574707 30.307953 0.021652222c5.828705 0.002960205 12.240326 0.00541687 19.526215 0.0071411133l12.7717285 0.0013885498" fill-rule="evenodd"></path><path fill="#000000" stroke="#000000" stroke-width="2.0" stroke-linecap="butt" d="m485.89728 253.58955l9.076569 -3.302475l-9.075836 -3.3044586z" fill-rule="evenodd"></path><path fill="#000000" fill-opacity="0.0" d="m257.4882 145.43307l83.1496 0l0 31.338577l-83.1496 0z" fill-rule="nonzero"></path><path fill="#000000" d="m271.71835 163.85806q0 -1.875 1.03125 -2.765625q0.875 -0.75 2.125 -0.75q1.390625 0 2.265625 0.90625q0.890625 0.90625 0.890625 2.515625q0 1.296875 -0.390625 2.046875q-0.390625 0.75 -1.140625 1.171875q-0.75 0.40625 -1.625 0.40625q-1.421875 0 -2.296875 -0.90625q-0.859375 -0.90625 -0.859375 -2.625zm1.171875 0q0 1.296875 0.5625 1.953125q0.5625 0.640625 1.421875 0.640625q0.84375 0 1.40625 -0.640625q0.578125 -0.65625 0.578125 -1.984375q0 -1.25 -0.578125 -1.890625q-0.5625 -0.65625 -1.40625 -0.65625q-0.859375 0 -1.421875 0.640625q-0.5625 0.640625 -0.5625 1.9375zm6.6468506 3.375l0 -6.734375l1.03125 0l0 1.015625q0.390625 -0.71875 0.71875 -0.9375q0.34375 -0.234375 0.734375 -0.234375q0.578125 0 1.171875 0.359375l-0.390625 1.0625q-0.421875 -0.25 -0.828125 -0.25q-0.375 0 -0.6875 0.234375q-0.296875 0.21875 -0.421875 0.625q-0.1875 0.609375 -0.1875 1.328125l0 3.53125l-1.140625 0zm4.4539795 -7.984375l0 -1.328125l1.140625 0l0 1.328125l-1.140625 0zm0 7.984375l0 -6.734375l1.140625 0l0 6.734375l-1.140625 0zm2.74234 0.5625l1.125 0.15625q0.0625 0.515625 0.375 0.75q0.4375 0.328125 1.171875 0.328125q0.78125 0 1.21875 -0.328125q0.4375 -0.3125 0.578125 -0.890625q0.09375 -0.34375 0.09375 -1.453125q-0.75 0.875 -1.875 0.875q-1.390625 0 -2.15625 -1.0q-0.75 -1.0 -0.75 -2.40625q0 -0.96875 0.34375 -1.78125q0.359375 -0.8125 1.015625 -1.25q0.65625 -0.453125 1.5625 -0.453125q1.1875 0 1.96875 0.96875l0 -0.8125l1.046875 0l0 5.8125q0 1.578125 -0.328125 2.234375q-0.3125 0.65625 -1.015625 1.03125q-0.6875 0.390625 -1.703125 0.390625q-1.203125 0 -1.953125 -0.546875q-0.734375 -0.53125 -0.71875 -1.625zm0.953125 -4.046875q0 1.3125 0.515625 1.921875q0.53125 0.609375 1.328125 0.609375q0.796875 0 1.328125 -0.59375q0.53125 -0.609375 0.53125 -1.90625q0 -1.234375 -0.546875 -1.859375q-0.546875 -0.640625 -1.328125 -0.640625q-0.765625 0 -1.296875 0.625q-0.53125 0.625 -0.53125 1.84375zm6.6781006 -4.5l0 -1.328125l1.140625 0l0 1.328125l-1.140625 0zm0 7.984375l0 -6.734375l1.140625 0l0 6.734375l-1.140625 0zm2.96109 0l0 -6.734375l1.03125 0l0 0.953125q0.734375 -1.109375 2.140625 -1.109375q0.609375 0 1.109375 0.21875q0.515625 0.21875 0.765625 0.578125q0.265625 0.34375 0.359375 0.84375q0.0625 0.3125 0.0625 1.109375l0 4.140625l-1.140625 0l0 -4.09375q0 -0.703125 -0.140625 -1.046875q-0.125 -0.34375 -0.46875 -0.546875q-0.328125 -0.21875 -0.78125 -0.21875q-0.734375 0 -1.265625 0.46875q-0.53125 0.453125 -0.53125 1.75l0 3.6875l-1.140625 0zm11.803101 -0.828125q-0.625 0.53125 -1.21875 0.765625q-0.578125 0.21875 -1.25 0.21875q-1.125 0 -1.71875 -0.546875q-0.59375 -0.546875 -0.59375 -1.390625q0 -0.484375 0.21875 -0.890625q0.234375 -0.421875 0.59375 -0.671875q0.375 -0.25 0.828125 -0.375q0.328125 -0.078125 1.015625 -0.171875q1.375 -0.15625 2.03125 -0.390625q0.015625 -0.234375 0.015625 -0.296875q0 -0.703125 -0.328125 -0.984375q-0.4375 -0.390625 -1.296875 -0.390625q-0.8125 0 -1.203125 0.28125q-0.375 0.28125 -0.5625 1.0l-1.109375 -0.140625q0.140625 -0.71875 0.484375 -1.15625q0.359375 -0.453125 1.015625 -0.6875q0.671875 -0.234375 1.53125 -0.234375q0.875 0 1.40625 0.203125q0.546875 0.203125 0.796875 0.515625q0.25 0.296875 0.359375 0.765625q0.046875 0.296875 0.046875 1.0625l0 1.515625q0 1.59375 0.078125 2.015625q0.078125 0.421875 0.28125 0.8125l-1.1875 0q-0.171875 -0.359375 -0.234375 -0.828125zm-0.09375 -2.5625q-0.625 0.265625 -1.859375 0.4375q-0.703125 0.109375 -1.0 0.234375q-0.296875 0.125 -0.453125 0.375q-0.15625 0.234375 -0.15625 0.53125q0 0.453125 0.34375 0.765625q0.34375 0.296875 1.015625 0.296875q0.65625 0 1.171875 -0.28125q0.515625 -0.296875 0.765625 -0.796875q0.171875 -0.375 0.171875 -1.140625l0 -0.421875zm5.6156006 2.375l0.15625 1.0q-0.484375 0.109375 -0.859375 0.109375q-0.625 0 -0.96875 -0.203125q-0.34375 -0.203125 -0.484375 -0.515625q-0.140625 -0.328125 -0.140625 -1.34375l0 -3.890625l-0.828125 0l0 -0.875l0.828125 0l0 -1.671875l1.140625 -0.6875l0 2.359375l1.15625 0l0 0.875l-1.15625 0l0 3.953125q0 0.484375 0.0625 0.625q0.0625 0.140625 0.1875 0.21875q0.140625 0.078125 0.390625 0.078125q0.203125 0 0.515625 -0.03125zm0.7811279 -2.359375q0 -1.875 1.03125 -2.765625q0.875 -0.75 2.125 -0.75q1.390625 0 2.265625 0.90625q0.890625 0.90625 0.890625 2.515625q0 1.296875 -0.390625 2.046875q-0.390625 0.75 -1.140625 1.171875q-0.75 0.40625 -1.625 0.40625q-1.421875 0 -2.296875 -0.90625q-0.859375 -0.90625 -0.859375 -2.625zm1.171875 0q0 1.296875 0.5625 1.953125q0.5625 0.640625 1.421875 0.640625q0.84375 0 1.40625 -0.640625q0.578125 -0.65625 0.578125 -1.984375q0 -1.25 -0.578125 -1.890625q-0.5625 -0.65625 -1.40625 -0.65625q-0.859375 0 -1.421875 0.640625q-0.5625 0.640625 -0.5625 1.9375zm6.6468506 3.375l0 -6.734375l1.03125 0l0 1.015625q0.390625 -0.71875 0.71875 -0.9375q0.34375 -0.234375 0.734375 -0.234375q0.578125 0 1.171875 0.359375l-0.390625 1.0625q-0.421875 -0.25 -0.828125 -0.25q-0.375 0 -0.6875 0.234375q-0.296875 0.21875 -0.421875 0.625q-0.1875 0.609375 -0.1875 1.328125l0 3.53125l-1.140625 0z" fill-rule="nonzero"></path><path fill="#4a86e8" d="m270.82678 266.65878l56.472443 0l0 31.338593l-56.472443 0z" fill-rule="nonzero"></path><path fill="#000000" d="m283.1796 288.4588l0 -9.3125l1.875 0l0 4.140625l3.796875 -4.140625l2.53125 0l-3.5 3.625l3.6875 5.6875l-2.421875 0l-2.5625 -4.375l-1.53125 1.5625l0 2.8125l-1.875 0zm12.90625 -5.1875l0 -1.625l6.5 0l0 1.625l-6.5 0zm0 2.828125l0 -1.640625l6.5 0l0 1.640625l-6.5 0zm14.252045 2.359375l-3.3125 -9.3125l2.03125 0l2.359375 6.890625l2.28125 -6.890625l1.984375 0l-3.328125 9.3125l-2.015625 0z" fill-rule="nonzero"></path><path fill="#4a86e8" d="m519.46454 482.06036l65.165405 0l0 31.338562l-65.165405 0z" fill-rule="nonzero"></path><path fill="#000000" d="m532.4576 503.86035l0 -9.3125l1.875 0l0 4.140625l3.796875 -4.140625l2.53125 0l-3.5 3.625l3.6875 5.6875l-2.421875 0l-2.5625 -4.375l-1.53125 1.5625l0 2.8125l-1.875 0zm12.906311 -5.1875l0 -1.625l6.5 0l0 1.625l-6.5 0zm0 2.828125l0 -1.640625l6.5 0l0 1.640625l-6.5 0zm14.252014 2.359375l-3.3125 -9.3125l2.03125 0l2.359375 6.890625l2.28125 -6.890625l1.984375 0l-3.328125 9.3125l-2.015625 0zm12.1553955 -1.65625l0 1.65625l-6.25 0q0.09375 -0.9375 0.59375 -1.78125q0.515625 -0.84375 2.015625 -2.234375q1.203125 -1.125 1.484375 -1.515625q0.359375 -0.5625 0.359375 -1.09375q0 -0.59375 -0.328125 -0.90625q-0.3125 -0.328125 -0.875 -0.328125q-0.5625 0 -0.890625 0.34375q-0.328125 0.328125 -0.375 1.109375l-1.78125 -0.1875q0.15625 -1.46875 1.0 -2.109375q0.84375 -0.640625 2.09375 -0.640625q1.375 0 2.15625 0.75q0.796875 0.734375 0.796875 1.84375q0 0.625 -0.234375 1.203125q-0.21875 0.5625 -0.703125 1.171875q-0.328125 0.421875 -1.171875 1.203125q-0.84375 0.765625 -1.078125 1.03125q-0.21875 0.25 -0.359375 0.484375l3.546875 0z" fill-rule="nonzero"></path><path fill="#4a86e8" d="m257.4882 479.8714l65.165344 0l0 31.338562l-65.165344 0z" fill-rule="nonzero"></path><path fill="#000000" d="m270.48123 501.6714l0 -9.3125l1.875 0l0 4.140625l3.796875 -4.140625l2.53125 0l-3.5 3.625l3.6875 5.6875l-2.421875 0l-2.5625 -4.375l-1.53125 1.5625l0 2.8125l-1.875 0zm12.90625 -5.1875l0 -1.625l6.5 0l0 1.625l-6.5 0zm0 2.828125l0 -1.640625l6.5 0l0 1.640625l-6.5 0zm14.252045 2.359375l-3.3125 -9.3125l2.03125 0l2.359375 6.890625l2.28125 -6.890625l1.984375 0l-3.328125 9.3125l-2.015625 0zm10.686615 0l-1.78125 0l0 -6.71875q-0.96875 0.90625 -2.296875 1.34375l0 -1.609375q0.703125 -0.234375 1.515625 -0.875q0.8125 -0.640625 1.125 -1.484375l1.4375 0l0 9.34375z" fill-rule="nonzero"></path><path fill="#000000" fill-opacity="0.0" d="m256.13385 513.3333l67.87402 -31.181091" fill-rule="nonzero"></path><path stroke="#ff0000" stroke-width="2.0" stroke-linejoin="round" stroke-linecap="butt" d="m256.13385 513.3333l67.87402 -31.181091" fill-rule="nonzero"></path><path fill="#000000" fill-opacity="0.0" d="m518.1102 513.3333l67.87402 -31.181091" fill-rule="nonzero"></path><path stroke="#ff0000" stroke-width="2.0" stroke-linejoin="round" stroke-linecap="butt" d="m518.1102 513.3333l67.87402 -31.181091" fill-rule="nonzero"></path><path fill="#000000" fill-opacity="0.0" d="m324.00787 511.02362l-67.87402 -31.181091" fill-rule="nonzero"></path><path stroke="#ff0000" stroke-width="2.0" stroke-linejoin="round" stroke-linecap="butt" d="m324.00787 511.02362l-67.87402 -31.181091" fill-rule="nonzero"></path><path fill="#000000" fill-opacity="0.0" d="m585.98425 513.3333l-67.87402 -31.181091" fill-rule="nonzero"></path><path stroke="#ff0000" stroke-width="2.0" stroke-linejoin="round" stroke-linecap="butt" d="m585.98425 513.3333l-67.87402 -31.181091" fill-rule="nonzero"></path></g></svg>

