<svg id="a64f25fd-e6cd-428a-b7c5-7dc9863326ce" data-name="Layer 1" xmlns="http://www.w3.org/2000/svg" width="760" height="307.973"><defs><style>.a8e8b1f5-43a0-4c17-a178-46ffc0a61256,.b26d81d4-3b43-46b7-bb0f-893f5bea6a9b,.e4ff4ed8-7679-4c0a-8ab2-16030ad1c4ce,.efc6ceb7-eba7-429d-908d-687c2ccc86df{fill:none}.b26d81d4-3b43-46b7-bb0f-893f5bea6a9b,.e4ff4ed8-7679-4c0a-8ab2-16030ad1c4ce,.efc6ceb7-eba7-429d-908d-687c2ccc86df{stroke:#adadad}.a8e8b1f5-43a0-4c17-a178-46ffc0a61256,.b26d81d4-3b43-46b7-bb0f-893f5bea6a9b,.e4ff4ed8-7679-4c0a-8ab2-16030ad1c4ce,.efc6ceb7-eba7-429d-908d-687c2ccc86df{stroke-linecap:round;stroke-linejoin:round}.b26d81d4-3b43-46b7-bb0f-893f5bea6a9b{stroke-dasharray:2.991 2.991}.e4ff4ed8-7679-4c0a-8ab2-16030ad1c4ce{stroke-dasharray:3.019 3.019}.be136d4c-da9d-4c9f-bfd6-27fa01475b8f{fill:#e8e8e8}.b1633130-49ca-402d-9286-cf4289b691f1{font-size:14px;font-family:RedHatText,&quot;Red Hat Text&quot;,Overpass,&quot;Helvetica Neue&quot;,Arial,sans-serif;font-weight:700}.a4fa216a-a6af-4cdc-abe4-00dcb65666b3,.a8222f7d-e386-457a-9d7b-bdf2a9995c67,.b1633130-49ca-402d-9286-cf4289b691f1{fill:#151515}.a8e8b1f5-43a0-4c17-a178-46ffc0a61256{stroke:#151515}.b1e559b7-669c-419b-8c47-928b257f3b68{fill:#fff}.a8222f7d-e386-457a-9d7b-bdf2a9995c67{font-size:11px;font-family:RedHatText,&quot;Red Hat Text&quot;,Overpass,&quot;Helvetica Neue&quot;,Arial,sans-serif;font-weight:500}</style></defs><path class="efc6ceb7-eba7-429d-908d-687c2ccc86df" d="M.5 22v-1.5H2"/><path class="b26d81d4-3b43-46b7-bb0f-893f5bea6a9b" d="M4.991 20.5h327.513"/><path class="efc6ceb7-eba7-429d-908d-687c2ccc86df" d="M334 20.5h1.5V22"/><path class="e4ff4ed8-7679-4c0a-8ab2-16030ad1c4ce" d="M335.5 25.019v239.972"/><path class="efc6ceb7-eba7-429d-908d-687c2ccc86df" d="M335.5 266.5v1.5H334"/><path class="b26d81d4-3b43-46b7-bb0f-893f5bea6a9b" d="M331.009 268H3.496"/><path class="efc6ceb7-eba7-429d-908d-687c2ccc86df" d="M2 268H.5v-1.5"/><path class="e4ff4ed8-7679-4c0a-8ab2-16030ad1c4ce" d="M.5 263.482V23.509"/><path class="be136d4c-da9d-4c9f-bfd6-27fa01475b8f" d="M15.5 35.5h305V253h-305z"/><text class="b1633130-49ca-402d-9286-cf4289b691f1" transform="translate(30.5 62.032)">Infinispan cluster</text><path class="a8e8b1f5-43a0-4c17-a178-46ffc0a61256" d="M150.176 212.976l35.648.048"/><path class="a4fa216a-a6af-4cdc-abe4-00dcb65666b3" d="M151.629 217.964L143 212.966l8.642-4.974-.013 9.972zM184.358 218.008l8.642-4.974-8.629-4.998-.013 9.972z"/><path class="a8e8b1f5-43a0-4c17-a178-46ffc0a61256" d="M85.516 178.324l-.054-27.474H160.5v-14.199"/><path class="a4fa216a-a6af-4cdc-abe4-00dcb65666b3" d="M90.5 176.855l-4.97 8.645-5.003-8.625 9.973-.02zM165.486 138.11l-4.986-8.635-4.986 8.635h9.972z"/><path class="a8e8b1f5-43a0-4c17-a178-46ffc0a61256" d="M250.484 178.324l.054-27.474H175.5v-14.199"/><path class="a4fa216a-a6af-4cdc-abe4-00dcb65666b3" d="M255.473 176.875l-5.003 8.625-4.97-8.645 9.973.02zM180.486 138.11l-4.986-8.635-4.986 8.635h9.972z"/><path class="b1e559b7-669c-419b-8c47-928b257f3b68" transform="rotate(-180 85.5 213)" d="M30.5 188h110v50h-110z"/><text class="a8222f7d-e386-457a-9d7b-bdf2a9995c67" transform="translate(67.147 216.047)">Node 2</text><path class="b1e559b7-669c-419b-8c47-928b257f3b68" transform="rotate(-180 250.5 213)" d="M195.5 188h110v50h-110z"/><text class="a8222f7d-e386-457a-9d7b-bdf2a9995c67" transform="translate(231.096 216.047)">Node N</text><path class="b1e559b7-669c-419b-8c47-928b257f3b68" transform="rotate(-180 168 267.973)" d="M117.306 260.61h101.388v14.727H117.306z"/><path class="b1e559b7-669c-419b-8c47-928b257f3b68" transform="rotate(-180 168 103)" d="M113 78h110v50H113z"/><text class="a8222f7d-e386-457a-9d7b-bdf2a9995c67" transform="translate(150.901 106.047)">Node 1</text><text class="a8222f7d-e386-457a-9d7b-bdf2a9995c67" transform="translate(119.662 270.871)">Data center (LON)</text><path class="efc6ceb7-eba7-429d-908d-687c2ccc86df" d="M424.5 22v-1.5h1.5"/><path class="b26d81d4-3b43-46b7-bb0f-893f5bea6a9b" d="M428.991 20.5h327.513"/><path class="efc6ceb7-eba7-429d-908d-687c2ccc86df" d="M758 20.5h1.5V22"/><path class="e4ff4ed8-7679-4c0a-8ab2-16030ad1c4ce" d="M759.5 25.019v239.972"/><path class="efc6ceb7-eba7-429d-908d-687c2ccc86df" d="M759.5 266.5v1.5H758"/><path class="b26d81d4-3b43-46b7-bb0f-893f5bea6a9b" d="M755.009 268H427.496"/><path class="efc6ceb7-eba7-429d-908d-687c2ccc86df" d="M426 268h-1.5v-1.5"/><path class="e4ff4ed8-7679-4c0a-8ab2-16030ad1c4ce" d="M424.5 263.482V23.509"/><path class="be136d4c-da9d-4c9f-bfd6-27fa01475b8f" d="M439.5 35.5h305V253h-305z"/><text class="b1633130-49ca-402d-9286-cf4289b691f1" transform="translate(454.5 62.032)">Infinispan cluster</text><g><path class="a8e8b1f5-43a0-4c17-a178-46ffc0a61256" d="M574.176 212.976l35.648.048"/><path class="a4fa216a-a6af-4cdc-abe4-00dcb65666b3" d="M575.629 217.964L567 212.966l8.642-4.974-.013 9.972zM608.358 218.008l8.642-4.974-8.629-4.998-.013 9.972z"/></g><g><path class="a8e8b1f5-43a0-4c17-a178-46ffc0a61256" d="M574.176 102.976l35.648.048"/><path class="a4fa216a-a6af-4cdc-abe4-00dcb65666b3" d="M575.629 107.964L567 102.966l8.642-4.974-.013 9.972zM608.358 108.009l8.642-4.975-8.629-4.998-.013 9.973z"/></g><path stroke="#fff" stroke-miterlimit="10" stroke-width="10" fill="none" d="M331.96 144.216l96.08.068"/><g><path class="a8e8b1f5-43a0-4c17-a178-46ffc0a61256" d="M330.176 144.22l1.5.001"/><path stroke-dasharray="2.929 2.929" stroke="#151515" stroke-linecap="round" stroke-linejoin="round" fill="none" d="M334.605 144.223l92.255.055"/><path class="a8e8b1f5-43a0-4c17-a178-46ffc0a61256" d="M428.324 144.279l1.5.001"/><path class="a4fa216a-a6af-4cdc-abe4-00dcb65666b3" d="M331.632 149.208L323 144.216l8.638-4.981-.006 9.973zM428.362 149.265l8.638-4.981-8.632-4.992-.006 9.973z"/></g><g><path class="a8e8b1f5-43a0-4c17-a178-46ffc0a61256" d="M502.025 178.324l-.05-40.648"/><path class="a4fa216a-a6af-4cdc-abe4-00dcb65666b3" d="M507.01 176.859l-4.976 8.641-4.997-8.629 9.973-.012zM506.963 139.129l-4.997-8.629-4.976 8.641 9.973-.012z"/></g><g><path class="a8e8b1f5-43a0-4c17-a178-46ffc0a61256" d="M682.025 178.324l-.05-40.648"/><path class="a4fa216a-a6af-4cdc-abe4-00dcb65666b3" d="M687.01 176.859l-4.976 8.641-4.997-8.629 9.973-.012zM686.963 139.129l-4.997-8.629-4.976 8.641 9.973-.012z"/></g><path class="b1e559b7-669c-419b-8c47-928b257f3b68" transform="rotate(-180 509.5 213)" d="M454.5 188h110v50h-110z"/><text class="a8222f7d-e386-457a-9d7b-bdf2a9995c67" transform="translate(491.147 216.047)">Node 2</text><path class="b1e559b7-669c-419b-8c47-928b257f3b68" transform="rotate(-180 674.5 213)" d="M619.5 188h110v50h-110z"/><text class="a8222f7d-e386-457a-9d7b-bdf2a9995c67" transform="translate(655.096 216.047)">Node N</text><path class="b1e559b7-669c-419b-8c47-928b257f3b68" transform="rotate(-180 509.5 103)" d="M454.5 78h110v50h-110z"/><path class="b1e559b7-669c-419b-8c47-928b257f3b68" transform="rotate(-180 592 267.973)" d="M541.861 260.61h100.278v14.727H541.861z"/><text class="a8222f7d-e386-457a-9d7b-bdf2a9995c67" transform="translate(492.401 106.047)">Node 1</text><path class="b1e559b7-669c-419b-8c47-928b257f3b68" transform="rotate(-180 674.5 103)" d="M619.5 78h110v50h-110z"/><text class="a8222f7d-e386-457a-9d7b-bdf2a9995c67" transform="translate(655.944 106.047)">Node 3</text><text class="a8222f7d-e386-457a-9d7b-bdf2a9995c67" transform="translate(543.798 270.871)">Data center (NYC)</text><g><path class="a8e8b1f5-43a0-4c17-a178-46ffc0a61256" d="M517.034 138.036v27.494l150-.068v12.862"/><path class="a4fa216a-a6af-4cdc-abe4-00dcb65666b3" d="M512.048 139.495l4.986-8.635 4.986 8.635h-9.972zM662.048 176.865l4.986 8.635 4.986-8.635h-9.972z"/></g><path stroke="#e8e8e8" stroke-width="8" stroke-linecap="round" stroke-linejoin="round" fill="none" d="M532.034 175.87v-26.036"/><text transform="translate(358.447 124.251)" font-family="RedHatText,&quot;Red Hat Text&quot;,Overpass,&quot;Helvetica Neue&quot;,Arial,sans-serif" font-size="11" fill="#151515">JGroups<tspan x="1.056" y="12">RELAY2</tspan></text><g><text transform="translate(668.852 290.99)" font-size="10" fill="#f3f3f3" font-family="RedHatText,&quot;Red Hat Text&quot;,Overpass,&quot;Helvetica Neue&quot;,Arial,sans-serif">166_Data_Grid_0521</text><path fill="none" d="M0 267.973h760v40H0z"/></g><g><path class="a8e8b1f5-43a0-4c17-a178-46ffc0a61256" d="M532.034 178.324V150.83l135 .068v-12.862"/><path class="a4fa216a-a6af-4cdc-abe4-00dcb65666b3" d="M537.02 176.865l-4.986 8.635-4.986-8.635h9.972zM672.02 139.495l-4.986-8.635-4.986 8.635h9.972z"/></g></svg>
