<svg id="ef5b956c-d507-469a-809f-286652181082" data-name="Layer 1" xmlns="http://www.w3.org/2000/svg" width="760" height="337.5"><defs><style>.f9b358ab-eddd-466c-93bc-1e8ec24579b8{fill:#e8e8e8}.a39028f2-b7d4-471a-8acb-8739802c5964,.a4752c23-45f6-4b83-8196-e31bbf090024,.aab5ed5e-636c-44c3-8958-08004010a0d6,.e8fc0995-a816-4fcc-9ffb-4c1522f3ba3f,.ed0d0c25-b631-4ea4-a91d-dc58668a5f94{fill:#151515}.aab5ed5e-636c-44c3-8958-08004010a0d6,.e8fc0995-a816-4fcc-9ffb-4c1522f3ba3f{font-family:RedHatText,&quot;Red Hat Text&quot;,Overpass,&quot;Helvetica Neue&quot;,Arial,sans-serif;font-weight:700}.a0a0f720-d71e-4215-87ee-94b36c8763d1,.a73637ab-3d16-4141-996f-347be1438cc3,.b82a0e5f-7651-4e8d-a907-36b682659a6a,.e69ca6d7-f1b5-426f-a0d3-405a6eb0053b{fill:none}.a73637ab-3d16-4141-996f-347be1438cc3,.b82a0e5f-7651-4e8d-a907-36b682659a6a,.e69ca6d7-f1b5-426f-a0d3-405a6eb0053b{stroke:#151515;stroke-linecap:round;stroke-linejoin:round}.a0a0f720-d71e-4215-87ee-94b36c8763d1{stroke:#c4c4c4;stroke-miterlimit:10}.a4752c23-45f6-4b83-8196-e31bbf090024,.e8fc0995-a816-4fcc-9ffb-4c1522f3ba3f,.ed0d0c25-b631-4ea4-a91d-dc58668a5f94{font-size:11px}.a4752c23-45f6-4b83-8196-e31bbf090024{font-weight:500}.a4752c23-45f6-4b83-8196-e31bbf090024,.ed0d0c25-b631-4ea4-a91d-dc58668a5f94{font-family:RedHatText,&quot;Red Hat Text&quot;,Overpass,&quot;Helvetica Neue&quot;,Arial,sans-serif}.b63626d5-aa44-44d0-a50e-4189547c6758{fill:#fff}.b33743fe-f6b3-4aa5-849e-0ad4b46dd574{fill:#d9e8f7}.ae483d12-241f-4e1b-a4bd-9a82a2ff6df8{fill:#06c}.aab5ed5e-636c-44c3-8958-08004010a0d6{font-size:12px}.e69ca6d7-f1b5-426f-a0d3-405a6eb0053b{stroke-dasharray:2.955 2.955}.a73637ab-3d16-4141-996f-347be1438cc3{stroke-dasharray:3.025 3.025}</style></defs><path class="f9b358ab-eddd-466c-93bc-1e8ec24579b8" d="M0 20h515v272.5H0z"/><text transform="translate(15 46.532)" font-family="RedHatText,&quot;Red Hat Text&quot;,Overpass,&quot;Helvetica Neue&quot;,Arial,sans-serif" font-weight="700" fill="#151515" font-size="14">Infinispan cluster</text><path class="b82a0e5f-7651-4e8d-a907-36b682659a6a" d="M234.676 232.474l45.648.051"/><path class="a39028f2-b7d4-471a-8acb-8739802c5964" d="M236.13 237.462l-8.63-4.996 8.641-4.977-.011 9.973zM278.859 237.51l8.641-4.976-8.63-4.997-.011 9.973z"/><path class="b82a0e5f-7651-4e8d-a907-36b682659a6a" d="M394.972 177.824l.062-70.324h-20.358"/><path class="a39028f2-b7d4-471a-8acb-8739802c5964" d="M399.96 176.369L394.966 185l-4.979-8.64 9.973.009zM376.135 102.514L367.5 107.5l8.635 4.986v-9.972z"/><path class="b82a0e5f-7651-4e8d-a907-36b682659a6a" d="M549.848 87.5h-25.172"/><path class="a39028f2-b7d4-471a-8acb-8739802c5964" d="M548.389 82.514l8.636 4.986-8.636 4.986v-9.972zM526.135 82.514L517.5 87.5l8.635 4.986v-9.972z"/><path class="b82a0e5f-7651-4e8d-a907-36b682659a6a" d="M124.987 177.824l-.062-70.324h20.358"/><path class="a39028f2-b7d4-471a-8acb-8739802c5964" d="M129.972 176.36l-4.979 8.64-4.994-8.631 9.973-.009zM143.824 112.486l8.635-4.986-8.635-4.986v9.972z"/><path class="a0a0f720-d71e-4215-87ee-94b36c8763d1" d="M569.5 277.5h190v-50"/><path class="a0a0f720-d71e-4215-87ee-94b36c8763d1" d="M564.5 272.5h190v-50"/><path class="f9b358ab-eddd-466c-93bc-1e8ec24579b8" d="M559.5 217.5h190v50h-190z"/><text class="a4752c23-45f6-4b83-8196-e31bbf090024" transform="translate(574.985 245.546)">Applications</text><path class="f9b358ab-eddd-466c-93bc-1e8ec24579b8" d="M559.5 62.5h190v50h-190z"/><text class="a4752c23-45f6-4b83-8196-e31bbf090024" transform="translate(606.767 90.547)">Persistent storage</text><text class="ed0d0c25-b631-4ea4-a91d-dc58668a5f94" transform="translate(585.011 167.5)">Write</text><path class="b63626d5-aa44-44d0-a50e-4189547c6758" transform="rotate(-180 120 232.5)" d="M15 187.5h210v90H15z"/><path class="b33743fe-f6b3-4aa5-849e-0ad4b46dd574" transform="rotate(-180 120 242.5)" d="M25 217.5h190v50H25z"/><path class="b63626d5-aa44-44d0-a50e-4189547c6758" d="M179.5 230h25v25h-25z"/><path class="ae483d12-241f-4e1b-a4bd-9a82a2ff6df8" d="M204 230.5v24h-24v-24h24m1-1h-26v26h26v-26z"/><text class="e8fc0995-a816-4fcc-9ffb-4c1522f3ba3f" transform="translate(188.04 245.453)">C</text><path class="b63626d5-aa44-44d0-a50e-4189547c6758" d="M148.5 230h25v25h-25z"/><path class="ae483d12-241f-4e1b-a4bd-9a82a2ff6df8" d="M173 230.5v24h-24v-24h24m1-1h-26v26h26v-26z"/><text class="e8fc0995-a816-4fcc-9ffb-4c1522f3ba3f" transform="translate(156.99 245.453)">B</text><text class="aab5ed5e-636c-44c3-8958-08004010a0d6" transform="translate(25 209.288)">Node 2</text><text class="a4752c23-45f6-4b83-8196-e31bbf090024" transform="translate(68.77 245.547)">Cache</text><path class="b63626d5-aa44-44d0-a50e-4189547c6758" transform="rotate(-180 395 232.5)" d="M290 187.5h210v90H290z"/><path class="b33743fe-f6b3-4aa5-849e-0ad4b46dd574" transform="rotate(-180 395 242.5)" d="M300 217.5h190v50H300z"/><g><path class="b63626d5-aa44-44d0-a50e-4189547c6758" d="M454.5 230h25v25h-25z"/><path class="ae483d12-241f-4e1b-a4bd-9a82a2ff6df8" d="M479 230.5v24h-24v-24h24m1-1h-26v26h26v-26z"/><text class="e8fc0995-a816-4fcc-9ffb-4c1522f3ba3f" transform="translate(463.04 245.453)">C</text><g><path class="b63626d5-aa44-44d0-a50e-4189547c6758" d="M423.5 230h25v25h-25z"/><path class="ae483d12-241f-4e1b-a4bd-9a82a2ff6df8" d="M448 230.5v24h-24v-24h24m1-1h-26v26h26v-26z"/><text class="e8fc0995-a816-4fcc-9ffb-4c1522f3ba3f" transform="translate(431.919 245.453)">A</text></g></g><g><path class="b63626d5-aa44-44d0-a50e-4189547c6758" d="M683 230h25v25h-25z"/><path class="ae483d12-241f-4e1b-a4bd-9a82a2ff6df8" d="M707.5 230.5v24h-24v-24h24m1-1h-26v26h26v-26z"/><text class="e8fc0995-a816-4fcc-9ffb-4c1522f3ba3f" transform="translate(691.49 245.453)">B</text><g><path class="b63626d5-aa44-44d0-a50e-4189547c6758" d="M714 230h25v25h-25z"/><path class="ae483d12-241f-4e1b-a4bd-9a82a2ff6df8" d="M738.5 230.5v24h-24v-24h24m1-1h-26v26h26v-26z"/><text class="e8fc0995-a816-4fcc-9ffb-4c1522f3ba3f" transform="translate(722.54 245.453)">C</text></g><g><path class="b63626d5-aa44-44d0-a50e-4189547c6758" d="M652 230h25v25h-25z"/><path class="ae483d12-241f-4e1b-a4bd-9a82a2ff6df8" d="M676.5 230.5v24h-24v-24h24m1-1h-26v26h26v-26z"/><text class="e8fc0995-a816-4fcc-9ffb-4c1522f3ba3f" transform="translate(660.419 245.453)">A</text></g></g><text class="aab5ed5e-636c-44c3-8958-08004010a0d6" transform="translate(300 209.288)">Node N</text><text class="a4752c23-45f6-4b83-8196-e31bbf090024" transform="translate(343.77 245.547)">Cache</text><path class="b63626d5-aa44-44d0-a50e-4189547c6758" transform="rotate(-180 260 107.5)" d="M155 62.5h210v90H155z"/><path class="b33743fe-f6b3-4aa5-849e-0ad4b46dd574" transform="rotate(-180 260 117.5)" d="M165 92.5h190v50H165z"/><g><path class="b63626d5-aa44-44d0-a50e-4189547c6758" d="M319.5 105h25v25h-25z"/><path class="ae483d12-241f-4e1b-a4bd-9a82a2ff6df8" d="M344 105.5v24h-24v-24h24m1-1h-26v26h26v-26z"/><text class="e8fc0995-a816-4fcc-9ffb-4c1522f3ba3f" transform="translate(327.99 120.453)">B</text><g><path class="b63626d5-aa44-44d0-a50e-4189547c6758" d="M288.5 105h25v25h-25z"/><path class="ae483d12-241f-4e1b-a4bd-9a82a2ff6df8" d="M313 105.5v24h-24v-24h24m1-1h-26v26h26v-26z"/><text class="e8fc0995-a816-4fcc-9ffb-4c1522f3ba3f" transform="translate(296.919 120.453)">A</text></g></g><text class="aab5ed5e-636c-44c3-8958-08004010a0d6" transform="translate(165 84.288)">Node 1</text><text class="a4752c23-45f6-4b83-8196-e31bbf090024" transform="translate(208.77 120.547)">Cache</text><g><path class="b82a0e5f-7651-4e8d-a907-36b682659a6a" d="M726.5 219.824v-1.5"/><path class="e69ca6d7-f1b5-426f-a0d3-405a6eb0053b" d="M726.5 215.369v-39.892"/><path class="b82a0e5f-7651-4e8d-a907-36b682659a6a" d="M726.5 174v-1.5H725"/><path stroke-dasharray="2.971 2.971" stroke="#151515" stroke-linecap="round" stroke-linejoin="round" fill="none" d="M722.029 172.5H467.986"/><path class="b82a0e5f-7651-4e8d-a907-36b682659a6a" d="M466.5 172.5H465v1.5"/><path class="e69ca6d7-f1b5-426f-a0d3-405a6eb0053b" d="M465 176.955v39.891"/><path class="b82a0e5f-7651-4e8d-a907-36b682659a6a" d="M465 218.324v1.5"/><path class="a39028f2-b7d4-471a-8acb-8739802c5964" d="M731.486 218.365L726.5 227l-4.986-8.635h9.972zM460.014 218.365L465 227l4.986-8.635h-9.972z"/></g><text class="ed0d0c25-b631-4ea4-a91d-dc58668a5f94" transform="translate(300.989 320.697)">Replication</text><g><path class="b82a0e5f-7651-4e8d-a907-36b682659a6a" d="M465 265.176v1.5"/><path class="a73637ab-3d16-4141-996f-347be1438cc3" d="M465 269.701v34.787"/><path class="b82a0e5f-7651-4e8d-a907-36b682659a6a" d="M465 306v1.5h-1.5"/><path stroke-dasharray="2.967 2.967" stroke="#151515" stroke-linecap="round" stroke-linejoin="round" fill="none" d="M460.533 307.5H194.984"/><path class="b82a0e5f-7651-4e8d-a907-36b682659a6a" d="M193.5 307.5H192V306"/><path class="a73637ab-3d16-4141-996f-347be1438cc3" d="M192 302.975v-34.786"/><path class="b82a0e5f-7651-4e8d-a907-36b682659a6a" d="M192 266.676v-1.5"/><path class="a39028f2-b7d4-471a-8acb-8739802c5964" d="M460.014 266.635L465 258l4.986 8.635h-9.972zM196.986 266.635L192 258l-4.986 8.635h9.972z"/></g><g><text transform="translate(668.851 320.517)" font-size="10" fill="#f3f3f3" font-family="RedHatText,&quot;Red Hat Text&quot;,Overpass,&quot;Helvetica Neue&quot;,Arial,sans-serif">166_Data_Grid_0521</text><path fill="none" d="M0 297.5h760v40H0z"/></g></svg>
