<svg id="b6d15b38-4ca3-458d-894e-2bca76a3d058" data-name="Layer 1" xmlns="http://www.w3.org/2000/svg" width="760" height="420.77"><defs><style>.b4a322b1-60e5-418a-9432-a0b5ef64af2c,.b5bc793f-6698-45a9-b2c7-8f91a20e3f64,.e96c8ee2-564c-4b6d-b794-648b537a9a4f,.ed00b5c6-116e-4b40-98f4-c1c609edb748,.f643d9a1-aef1-4915-96f7-9e92902e6637{fill:none}.b5bc793f-6698-45a9-b2c7-8f91a20e3f64{stroke:#c4c4c4}.b4a322b1-60e5-418a-9432-a0b5ef64af2c,.e96c8ee2-564c-4b6d-b794-648b537a9a4f,.ed00b5c6-116e-4b40-98f4-c1c609edb748,.f643d9a1-aef1-4915-96f7-9e92902e6637{stroke-linecap:round;stroke-linejoin:round}.b9857e10-b04d-4585-9bf0-68ea2106abc4{fill:#e8e8e8}.fcfe1eaa-4c6f-41a4-84b8-0681b2c269f3{font-size:14px}.a5181ddc-af98-4a77-abc8-9bcf406c91ed,.a5da3aa6-088c-45ad-b28b-39431a6129d0,.f8a845ff-9025-498e-be8a-5b34e9755091,.fcfe1eaa-4c6f-41a4-84b8-0681b2c269f3{fill:#151515}.f60d5f44-c165-4d57-94c6-6fe25928d4af,.fcfe1eaa-4c6f-41a4-84b8-0681b2c269f3{font-family:RedHatText,&quot;Red Hat Text&quot;,Overpass,&quot;Helvetica Neue&quot;,Arial,sans-serif;font-weight:700}.a98270e9-f103-481b-8e87-8d3582b5275b{fill:#d9e8f7}.e96c8ee2-564c-4b6d-b794-648b537a9a4f,.ed00b5c6-116e-4b40-98f4-c1c609edb748{stroke:#151515}.e96c8ee2-564c-4b6d-b794-648b537a9a4f{stroke-dasharray:3 3}.a5181ddc-af98-4a77-abc8-9bcf406c91ed,.a5da3aa6-088c-45ad-b28b-39431a6129d0,.f60d5f44-c165-4d57-94c6-6fe25928d4af{font-size:11px}.a5da3aa6-088c-45ad-b28b-39431a6129d0{font-family:RedHatText,&quot;Red Hat Text&quot;,Overpass,&quot;Helvetica Neue&quot;,Arial,sans-serif;font-weight:500}.b9a94ea3-734f-4cad-b4d7-b92020ce5380,.f60d5f44-c165-4d57-94c6-6fe25928d4af{fill:#fff}.a5181ddc-af98-4a77-abc8-9bcf406c91ed{font-family:RedHatText,&quot;Red Hat Text&quot;,Overpass,&quot;Helvetica Neue&quot;,Arial,sans-serif}.b58e3d8a-323e-4769-976b-486a34854ad8{fill:#06c}.b5bc793f-6698-45a9-b2c7-8f91a20e3f64{stroke-miterlimit:10}.b4a322b1-60e5-418a-9432-a0b5ef64af2c,.f643d9a1-aef1-4915-96f7-9e92902e6637{stroke:#06c}.b4a322b1-60e5-418a-9432-a0b5ef64af2c{stroke-dasharray:3.036 3.036}</style></defs><path stroke-linecap="round" stroke-linejoin="round" stroke="#c4c4c4" fill="none" d="M.5 212h759"/><path class="b9857e10-b04d-4585-9bf0-68ea2106abc4" d="M270 20h220v162.5H270z"/><text class="fcfe1eaa-4c6f-41a4-84b8-0681b2c269f3" transform="translate(285 46.532)">Infinispan cluster</text><path class="a98270e9-f103-481b-8e87-8d3582b5275b" transform="rotate(-180 380 87.5)" d="M285 62.5h190v50H285z"/><path class="e96c8ee2-564c-4b6d-b794-648b537a9a4f" d="M275.324 137.503L190 137.441"/><path class="f8a845ff-9025-498e-be8a-5b34e9755091" d="M273.868 132.516l8.632 4.993-8.639 4.98.007-9.973z"/><path class="ed00b5c6-116e-4b40-98f4-c1c609edb748" d="M549.824 87.5L475 87.439"/><path class="f8a845ff-9025-498e-be8a-5b34e9755091" d="M548.369 82.513L557 87.506l-8.639 4.98.008-9.973z"/><text class="a5da3aa6-088c-45ad-b28b-39431a6129d0" transform="translate(363.77 90.547)">Cache</text><path class="b9a94ea3-734f-4cad-b4d7-b92020ce5380" transform="rotate(-180 380 137.5)" d="M285 112.5h190v50H285z"/><text class="a5da3aa6-088c-45ad-b28b-39431a6129d0" transform="translate(346.165 140.547)">Cache loader</text><text class="a5181ddc-af98-4a77-abc8-9bcf406c91ed" transform="translate(214.581 129.475)">Read</text><circle class="b58e3d8a-323e-4769-976b-486a34854ad8" cx="448" cy="88" r="13"/><text class="f60d5f44-c165-4d57-94c6-6fe25928d4af" transform="translate(441.823 92.047)">K1</text><path class="b5bc793f-6698-45a9-b2c7-8f91a20e3f64" d="M569.5 122.5h190v-50"/><path class="b5bc793f-6698-45a9-b2c7-8f91a20e3f64" d="M564.5 117.5h190v-50"/><path class="b9857e10-b04d-4585-9bf0-68ea2106abc4" d="M559.5 62.5h190v50h-190z"/><text class="a5da3aa6-088c-45ad-b28b-39431a6129d0" transform="translate(622.485 90.546)">Applications</text><path class="b58e3d8a-323e-4769-976b-486a34854ad8" d="M474 63.5v98H286v-98h188m1-1H285v100h190v-100z"/><path class="f643d9a1-aef1-4915-96f7-9e92902e6637" d="M285.894 112.484h1.5"/><path class="b4a322b1-60e5-418a-9432-a0b5ef64af2c" d="M290.43 112.484l180.658.032"/><path class="f643d9a1-aef1-4915-96f7-9e92902e6637" d="M472.606 112.516h1.5"/><path class="b9857e10-b04d-4585-9bf0-68ea2106abc4" d="M0 112.5h190v50H0z"/><text class="a5da3aa6-088c-45ad-b28b-39431a6129d0" transform="translate(32.267 140.546)">Persistent storage</text><circle class="b58e3d8a-323e-4769-976b-486a34854ad8" cx="162.938" cy="137.5" r="13"/><text class="f60d5f44-c165-4d57-94c6-6fe25928d4af" transform="translate(156.76 141.547)">K1</text><path class="b9857e10-b04d-4585-9bf0-68ea2106abc4" d="M270 241.5h220V404H270z"/><text class="fcfe1eaa-4c6f-41a4-84b8-0681b2c269f3" transform="translate(285 268.032)">Infinispan cluster</text><path class="a98270e9-f103-481b-8e87-8d3582b5275b" transform="rotate(-180 380 309)" d="M285 284h190v50H285z"/><path class="e96c8ee2-564c-4b6d-b794-648b537a9a4f" d="M275.324 359.003l-75.648-.057"/><path class="f8a845ff-9025-498e-be8a-5b34e9755091" d="M273.869 354.016l8.631 4.993-8.639 4.98.008-9.973zM201.139 353.961l-8.639 4.98 8.631 4.993.008-9.973z"/><path class="ed00b5c6-116e-4b40-98f4-c1c609edb748" d="M549.824 309l-65.148-.055"/><path class="f8a845ff-9025-498e-be8a-5b34e9755091" d="M548.369 304.013l8.631 4.993-8.639 4.979.008-9.972zM486.139 303.96l-8.639 4.979 8.631 4.993.008-9.972z"/><text class="a5da3aa6-088c-45ad-b28b-39431a6129d0" transform="translate(363.77 312.047)">Cache</text><path class="b9a94ea3-734f-4cad-b4d7-b92020ce5380" transform="rotate(-180 380 359)" d="M285 334h190v50H285z"/><text class="a5da3aa6-088c-45ad-b28b-39431a6129d0" transform="translate(349.019 362.047)">Cache store</text><text class="a5181ddc-af98-4a77-abc8-9bcf406c91ed" transform="translate(217.581 338.975)">Read<tspan x="-9.839" y="12">and write</tspan></text><g><circle class="b58e3d8a-323e-4769-976b-486a34854ad8" cx="448" cy="309.5" r="13"/><text class="f60d5f44-c165-4d57-94c6-6fe25928d4af" transform="translate(440.657 313.547)">K2</text></g><path class="b5bc793f-6698-45a9-b2c7-8f91a20e3f64" d="M569.5 344h190v-50"/><path class="b5bc793f-6698-45a9-b2c7-8f91a20e3f64" d="M564.5 339h190v-50"/><path class="b9857e10-b04d-4585-9bf0-68ea2106abc4" d="M559.5 284h190v50h-190z"/><text class="a5da3aa6-088c-45ad-b28b-39431a6129d0" transform="translate(622.485 312.046)">Applications</text><path class="b58e3d8a-323e-4769-976b-486a34854ad8" d="M474 285v98H286v-98h188m1-1H285v100h190V284z"/><g><path class="f643d9a1-aef1-4915-96f7-9e92902e6637" d="M285.894 333.984h1.5"/><path class="b4a322b1-60e5-418a-9432-a0b5ef64af2c" d="M290.43 333.984l180.658.032"/><path class="f643d9a1-aef1-4915-96f7-9e92902e6637" d="M472.606 334.016h1.5"/></g><g><path class="b9857e10-b04d-4585-9bf0-68ea2106abc4" d="M0 334h190v50H0z"/><text class="a5da3aa6-088c-45ad-b28b-39431a6129d0" transform="translate(32.267 362.046)">Persistent storage</text><circle class="b58e3d8a-323e-4769-976b-486a34854ad8" cx="162.938" cy="359" r="13"/><text class="f60d5f44-c165-4d57-94c6-6fe25928d4af" transform="translate(155.594 363.047)">K2</text></g><g><circle class="b58e3d8a-323e-4769-976b-486a34854ad8" cx="726.5" cy="309.5" r="13"/><text class="f60d5f44-c165-4d57-94c6-6fe25928d4af" transform="translate(719.157 313.547)">K2</text></g><g><text transform="translate(668.851 403.787)" font-size="10" fill="#f3f3f3" font-family="RedHatText,&quot;Red Hat Text&quot;,Overpass,&quot;Helvetica Neue&quot;,Arial,sans-serif">166_Data_Grid_0521</text><path fill="none" d="M0 380.77h760v40H0z"/></g></svg>
