<svg id="ef941eb6-a022-4e2e-afb0-47d2f13469bd" data-name="Layer 1" xmlns="http://www.w3.org/2000/svg" width="760" height="329.5"><defs><style>.e6925fa7-0f17-4155-8833-39f98dfaaf84{font-family:RedHatText,&quot;Red Hat Text&quot;,Overpass,&quot;Helvetica Neue&quot;,Arial,sans-serif}.a8607146-a3cc-494b-8438-28d5cfb8b02e,.aabbd98c-ef18-48d1-adac-ce46a6c6bf06,.ba702a4a-770a-47ca-8407-927b0f90d065,.e573c73b-e748-4e34-ad2e-cef3650486d2,.f8cb394d-3a6a-47b4-b503-5f46f99e0c3e{fill:none}.bf0bf78b-ac48-4ef7-a7b9-876ab437b70a{fill:#e8e8e8}.b86e17ce-b614-4efb-875d-18c2b07927c6,.e6925fa7-0f17-4155-8833-39f98dfaaf84,.e8430bc7-63ab-4e3c-8f29-23fe4db1931a{fill:#151515}.a83c4c8d-a05d-4aa9-a603-0f434978898c,.b5ce89b7-f56f-49b5-a9cc-eb2bbd771906{fill:#fff}.a564bc84-cc15-49a4-93d1-6ff6d047e600{fill:#06c}.e6925fa7-0f17-4155-8833-39f98dfaaf84,.e8430bc7-63ab-4e3c-8f29-23fe4db1931a{font-size:11px}.e8430bc7-63ab-4e3c-8f29-23fe4db1931a{font-family:RedHatText,&quot;Red Hat Text&quot;,Overpass,&quot;Helvetica Neue&quot;,Arial,sans-serif;font-weight:500}.a83c4c8d-a05d-4aa9-a603-0f434978898c,.aabbd98c-ef18-48d1-adac-ce46a6c6bf06,.ba702a4a-770a-47ca-8407-927b0f90d065{stroke:#5b5b5b}.a83c4c8d-a05d-4aa9-a603-0f434978898c,.a8607146-a3cc-494b-8438-28d5cfb8b02e,.aabbd98c-ef18-48d1-adac-ce46a6c6bf06,.ba702a4a-770a-47ca-8407-927b0f90d065,.e573c73b-e748-4e34-ad2e-cef3650486d2{stroke-linecap:round;stroke-linejoin:round}.a83c4c8d-a05d-4aa9-a603-0f434978898c,.aabbd98c-ef18-48d1-adac-ce46a6c6bf06{stroke-width:1.5px}.ba702a4a-770a-47ca-8407-927b0f90d065{stroke-width:2px}.a8607146-a3cc-494b-8438-28d5cfb8b02e,.e573c73b-e748-4e34-ad2e-cef3650486d2{stroke:#151515}.e573c73b-e748-4e34-ad2e-cef3650486d2{stroke-dasharray:3 3}.f8cb394d-3a6a-47b4-b503-5f46f99e0c3e{stroke:#c4c4c4;stroke-miterlimit:10}</style></defs><text transform="translate(668.851 312.517)" font-family="RedHatText,&quot;Red Hat Text&quot;,Overpass,&quot;Helvetica Neue&quot;,Arial,sans-serif" font-size="10" fill="#f3f3f3">166_Data_Grid_0521</text><path fill="none" d="M0 289.5h760v40H0z"/><path class="bf0bf78b-ac48-4ef7-a7b9-876ab437b70a" d="M0 20h445v292.5H0z"/><text transform="translate(15 46.532)" fill="#151515" font-size="14" font-family="RedHatText,&quot;Red Hat Text&quot;,Overpass,&quot;Helvetica Neue&quot;,Arial,sans-serif" font-weight="700">Infinispan cluster</text><path class="b5ce89b7-f56f-49b5-a9cc-eb2bbd771906" d="M15.5 63h179v99h-179z"/><path class="a564bc84-cc15-49a4-93d1-6ff6d047e600" d="M194 63.5v98H16v-98h178m1-1H15v100h180v-100z"/><text class="e8430bc7-63ab-4e3c-8f29-23fe4db1931a" transform="translate(84.839 126.714)">Server 1</text><path class="a83c4c8d-a05d-4aa9-a603-0f434978898c" d="M86.551 95.869h36.898v14.25H86.551z"/><path class="ba702a4a-770a-47ca-8407-927b0f90d065" d="M117.562 102.851"/><path class="aabbd98c-ef18-48d1-adac-ce46a6c6bf06" d="M92.187 102.976h8.716"/><path class="b5ce89b7-f56f-49b5-a9cc-eb2bbd771906" d="M250.5 63h179v99h-179z"/><path class="a564bc84-cc15-49a4-93d1-6ff6d047e600" d="M429 63.5v98H251v-98h178m1-1H250v100h180v-100z"/><text class="e8430bc7-63ab-4e3c-8f29-23fe4db1931a" transform="translate(318.382 126.714)">Server 3</text><path class="a83c4c8d-a05d-4aa9-a603-0f434978898c" d="M321.551 95.869h36.898v14.25h-36.898z"/><path class="ba702a4a-770a-47ca-8407-927b0f90d065" d="M352.562 102.851"/><path class="aabbd98c-ef18-48d1-adac-ce46a6c6bf06" d="M327.187 102.976h8.716"/><path class="b5ce89b7-f56f-49b5-a9cc-eb2bbd771906" d="M15.5 198h179v99h-179z"/><path class="a564bc84-cc15-49a4-93d1-6ff6d047e600" d="M194 198.5v98H16v-98h178m1-1H15v100h180v-100z"/><text class="e8430bc7-63ab-4e3c-8f29-23fe4db1931a" transform="translate(83.585 261.714)">Server 2</text><path class="a83c4c8d-a05d-4aa9-a603-0f434978898c" d="M86.551 230.869h36.898v14.25H86.551z"/><path class="ba702a4a-770a-47ca-8407-927b0f90d065" d="M117.562 237.851"/><path class="aabbd98c-ef18-48d1-adac-ce46a6c6bf06" d="M92.187 237.976h8.716"/><path class="b5ce89b7-f56f-49b5-a9cc-eb2bbd771906" d="M250.5 198h179v99h-179z"/><path class="a564bc84-cc15-49a4-93d1-6ff6d047e600" d="M429 198.5v98H251v-98h178m1-1H250v100h180v-100z"/><text class="e8430bc7-63ab-4e3c-8f29-23fe4db1931a" transform="translate(317.535 261.714)">Server N</text><path class="a83c4c8d-a05d-4aa9-a603-0f434978898c" d="M321.551 230.869h36.898v14.25h-36.898z"/><path class="ba702a4a-770a-47ca-8407-927b0f90d065" d="M352.562 237.851"/><path class="aabbd98c-ef18-48d1-adac-ce46a6c6bf06" d="M327.187 237.976h8.716"/><g><path class="a8607146-a3cc-494b-8438-28d5cfb8b02e" d="M105.018 172.176l-.036 15.648"/><path class="b86e17ce-b614-4efb-875d-18c2b07927c6" d="M100.028 173.624l5.006-8.624 4.967 8.646-9.973-.022zM99.999 186.354l4.967 8.646 5.006-8.624-9.973-.022z"/></g><g><path class="a8607146-a3cc-494b-8438-28d5cfb8b02e" d="M340.018 172.176l-.036 15.648"/><path class="b86e17ce-b614-4efb-875d-18c2b07927c6" d="M335.028 173.624l5.006-8.624 4.967 8.646-9.973-.022zM334.999 186.354l4.967 8.646 5.006-8.624-9.973-.022z"/></g><g><path class="a8607146-a3cc-494b-8438-28d5cfb8b02e" d="M204.676 254.976l35.648.048"/><path class="b86e17ce-b614-4efb-875d-18c2b07927c6" d="M206.128 259.964l-8.628-4.998 8.642-4.974-.014 9.972zM238.858 260.008l8.642-4.974-8.628-4.998-.014 9.972z"/></g><g><path class="a8607146-a3cc-494b-8438-28d5cfb8b02e" d="M204.676 104.976l35.648.048"/><path class="b86e17ce-b614-4efb-875d-18c2b07927c6" d="M206.128 109.964l-8.628-4.998 8.642-4.974-.014 9.972zM238.858 110.009l8.642-4.975-8.628-4.998-.014 9.973z"/></g><g><path class="e573c73b-e748-4e34-ad2e-cef3650486d2" d="M455.176 112.5h104.648"/><path class="b86e17ce-b614-4efb-875d-18c2b07927c6" d="M456.635 117.486L448 112.5l8.635-4.986v9.972zM558.365 117.486L567 112.5l-8.635-4.986v9.972z"/></g><path class="f8cb394d-3a6a-47b4-b503-5f46f99e0c3e" d="M579.5 282h180v-50"/><path class="f8cb394d-3a6a-47b4-b503-5f46f99e0c3e" d="M574.5 277h180v-50"/><path class="bf0bf78b-ac48-4ef7-a7b9-876ab437b70a" d="M569.5 222.5h180v50h-180z"/><text class="e8430bc7-63ab-4e3c-8f29-23fe4db1931a" transform="translate(627.485 250.547)">Applications</text><path class="f8cb394d-3a6a-47b4-b503-5f46f99e0c3e" d="M579.5 147h180V97"/><path class="f8cb394d-3a6a-47b4-b503-5f46f99e0c3e" d="M574.5 142h180V92"/><path class="bf0bf78b-ac48-4ef7-a7b9-876ab437b70a" d="M569.5 87.5h180v50h-180z"/><text class="e8430bc7-63ab-4e3c-8f29-23fe4db1931a" transform="translate(627.485 115.547)">Applications</text><text class="e6925fa7-0f17-4155-8833-39f98dfaaf84" transform="translate(483.092 92.473)">Read and <tspan x="-.083" y="12">write data</tspan></text><g><path class="e573c73b-e748-4e34-ad2e-cef3650486d2" d="M455.176 247.5h104.648"/><path class="b86e17ce-b614-4efb-875d-18c2b07927c6" d="M456.635 252.486L448 247.5l8.635-4.986v9.972zM558.365 252.486L567 247.5l-8.635-4.986v9.972z"/></g><text class="e6925fa7-0f17-4155-8833-39f98dfaaf84" transform="translate(483.092 227.473)">Read and <tspan x="-.083" y="12">write data</tspan></text><g><path class="a8607146-a3cc-494b-8438-28d5cfb8b02e" d="M204.676 120.01l12.824-.044v120.068h22.824"/><path class="b86e17ce-b614-4efb-875d-18c2b07927c6" d="M206.152 124.991l-8.652-4.957 8.618-5.016.034 9.973zM238.865 245.02l8.635-4.986-8.635-4.986v9.972z"/></g><g><path class="a8607146-a3cc-494b-8438-28d5cfb8b02e" d="M204.676 120.01l12.824-.044v120.068h22.824"/><path class="b86e17ce-b614-4efb-875d-18c2b07927c6" d="M206.152 124.991l-8.652-4.957 8.618-5.016.034 9.973zM238.865 245.02l8.635-4.986-8.635-4.986v9.972z"/></g><path stroke="#e8e8e8" stroke-width="8" stroke-linecap="round" stroke-linejoin="round" fill="none" d="M207.5 224.986l20 .068"/><g><path class="a8607146-a3cc-494b-8438-28d5cfb8b02e" d="M204.676 225.002l22.824.052V119.966h12.824"/><path class="b86e17ce-b614-4efb-875d-18c2b07927c6" d="M206.124 229.992l-8.624-5.006 8.646-4.967-.022 9.973zM238.865 124.952l8.635-4.986-8.635-4.986v9.972z"/></g></svg>
