<svg id="ee6d9664-f8c9-4a25-8b68-a2742bbeb11c" data-name="Layer 1" xmlns="http://www.w3.org/2000/svg" width="760" height="394.5"><defs><style>.beb2bea2-6fd1-41ae-8740-1b6591f240d5{fill:#e8e8e8}.a7312d9d-ed93-44f7-a7dc-b36b865ba9ee,.abb8ed2e-280f-446e-a3e9-4ba14efd965b,.ba82db84-f628-418f-8b03-01d004f00cf8,.be287f78-bae6-40da-9bc0-fcf60bfb2e8b,.bf36bc38-a124-40f5-abb8-9859b827f5d9,.edc432e9-50d8-4b62-8f90-245038a8582f,.f0681cd0-b972-444b-a2c3-f9ea6132cf43{fill:none}.a7312d9d-ed93-44f7-a7dc-b36b865ba9ee,.edc432e9-50d8-4b62-8f90-245038a8582f{stroke:#151515}.a023de0b-9d5f-4c44-8154-0e26ccf13504,.a7312d9d-ed93-44f7-a7dc-b36b865ba9ee,.abb8ed2e-280f-446e-a3e9-4ba14efd965b,.ba82db84-f628-418f-8b03-01d004f00cf8,.be287f78-bae6-40da-9bc0-fcf60bfb2e8b,.edc432e9-50d8-4b62-8f90-245038a8582f,.f0681cd0-b972-444b-a2c3-f9ea6132cf43{stroke-linecap:round;stroke-linejoin:round}.a4b5abcb-2cc4-48b0-8eca-e6b2ecd5fc12,.e994cdd7-30de-4b77-b926-320593909b4b{fill:#151515}.a023de0b-9d5f-4c44-8154-0e26ccf13504,.a43ff84f-1448-4d98-98c1-111bc9897d49{fill:#fff}.f8071d35-542a-42c8-922d-96112f895b4b{fill:#06c}.a4b5abcb-2cc4-48b0-8eca-e6b2ecd5fc12{font-size:11px;font-family:RedHatText,&quot;Red Hat Text&quot;,Overpass,&quot;Helvetica Neue&quot;,Arial,sans-serif;font-weight:500}.a023de0b-9d5f-4c44-8154-0e26ccf13504,.ba82db84-f628-418f-8b03-01d004f00cf8,.be287f78-bae6-40da-9bc0-fcf60bfb2e8b{stroke:#5b5b5b}.a023de0b-9d5f-4c44-8154-0e26ccf13504,.ba82db84-f628-418f-8b03-01d004f00cf8{stroke-width:1.5px}.be287f78-bae6-40da-9bc0-fcf60bfb2e8b{stroke-width:2px}.edc432e9-50d8-4b62-8f90-245038a8582f{stroke-dasharray:2.891 2.891}.f0681cd0-b972-444b-a2c3-f9ea6132cf43{stroke:#06c}.abb8ed2e-280f-446e-a3e9-4ba14efd965b{stroke:#fff;stroke-width:8px}.bf36bc38-a124-40f5-abb8-9859b827f5d9{stroke:#c4c4c4;stroke-miterlimit:10}</style></defs><path class="beb2bea2-6fd1-41ae-8740-1b6591f240d5" d="M0 20h220v357.5H0z"/><path class="a7312d9d-ed93-44f7-a7dc-b36b865ba9ee" d="M297.9 92.5h-1.5"/><path stroke-dasharray="2.889 2.889" stroke-linecap="round" stroke-linejoin="round" stroke="#151515" fill="none" d="M293.51 92.5h-50.565"/><path class="a7312d9d-ed93-44f7-a7dc-b36b865ba9ee" d="M241.5 92.5H240V94"/><path stroke-dasharray="3.068 3.068" stroke-linecap="round" stroke-linejoin="round" stroke="#151515" fill="none" d="M240 97.068v127.33"/><path class="a7312d9d-ed93-44f7-a7dc-b36b865ba9ee" d="M240 225.932v1.5"/><path class="e994cdd7-30de-4b77-b926-320593909b4b" d="M296.441 87.514l8.635 4.986-8.635 4.986v-9.972z"/><text transform="translate(15 46.531)" font-size="14" font-family="RedHatText,&quot;Red Hat Text&quot;,Overpass,&quot;Helvetica Neue&quot;,Arial,sans-serif" font-weight="700" fill="#151515">Infinispan cluster</text><path class="a43ff84f-1448-4d98-98c1-111bc9897d49" d="M15.5 273h189v89h-189z"/><path class="f8071d35-542a-42c8-922d-96112f895b4b" d="M204 273.5v88H16v-88h188m1-1H15v90h190v-90z"/><text class="a4b5abcb-2cc4-48b0-8eca-e6b2ecd5fc12" transform="translate(87.535 331.714)">Server N</text><path class="a023de0b-9d5f-4c44-8154-0e26ccf13504" d="M91.551 300.869h36.898v14.25H91.551z"/><path class="be287f78-bae6-40da-9bc0-fcf60bfb2e8b" d="M122.562 307.851"/><path class="ba82db84-f628-418f-8b03-01d004f00cf8" d="M97.187 307.976h8.716"/><path class="a43ff84f-1448-4d98-98c1-111bc9897d49" d="M15.5 168h189v89h-189z"/><path class="f8071d35-542a-42c8-922d-96112f895b4b" d="M204 168.5v88H16v-88h188m1-1H15v90h190v-90z"/><text class="a4b5abcb-2cc4-48b0-8eca-e6b2ecd5fc12" transform="translate(88.585 226.714)">Server 2</text><path class="a023de0b-9d5f-4c44-8154-0e26ccf13504" d="M91.551 195.869h36.898v14.25H91.551z"/><path class="be287f78-bae6-40da-9bc0-fcf60bfb2e8b" d="M122.562 202.851"/><path class="ba82db84-f628-418f-8b03-01d004f00cf8" d="M97.187 202.976h8.716"/><path class="a43ff84f-1448-4d98-98c1-111bc9897d49" d="M15.5 63h189v89h-189z"/><path class="f8071d35-542a-42c8-922d-96112f895b4b" d="M204 63.5v88H16v-88h188m1-1H15v90h190v-90z"/><text class="a4b5abcb-2cc4-48b0-8eca-e6b2ecd5fc12" transform="translate(89.84 121.714)">Server 1</text><path class="a023de0b-9d5f-4c44-8154-0e26ccf13504" d="M91.551 90.869h36.898v14.25H91.551z"/><path class="be287f78-bae6-40da-9bc0-fcf60bfb2e8b" d="M122.562 97.851"/><path class="ba82db84-f628-418f-8b03-01d004f00cf8" d="M97.187 97.976h8.716"/><path class="a7312d9d-ed93-44f7-a7dc-b36b865ba9ee" d="M240 332.432l1.5.002"/><path class="edc432e9-50d8-4b62-8f90-245038a8582f" d="M244.391 332.437l50.59.052"/><path class="a7312d9d-ed93-44f7-a7dc-b36b865ba9ee" d="M296.427 332.491l1.5.002"/><path class="e994cdd7-30de-4b77-b926-320593909b4b" d="M296.463 337.477l8.64-4.977-8.63-4.995-.01 9.972z"/><path class="f0681cd0-b972-444b-a2c3-f9ea6132cf43" d="M297.9 107.5H255v209.932l42.927.058"/><path class="f8071d35-542a-42c8-922d-96112f895b4b" d="M296.441 102.514l8.635 4.986-8.635 4.986v-9.972zM296.461 322.475l8.642-4.975-8.628-4.998-.014 9.973z"/><g><path class="a7312d9d-ed93-44f7-a7dc-b36b865ba9ee" d="M297.927 302.486l-28.03-.054L270 122.5"/><path class="e994cdd7-30de-4b77-b926-320593909b4b" d="M296.477 297.497l8.626 5.003-8.645 4.97.019-9.973z"/></g><path stroke-width="11" stroke="#fff" stroke-linecap="round" stroke-linejoin="round" fill="none" d="M230.721 212.432h14.709"/><path class="abb8ed2e-280f-446e-a3e9-4ba14efd965b" d="M266.447 212.432h14.709M251.541 227.432h26.428M235.699 122.5h29.404"/><g><path class="f0681cd0-b972-444b-a2c3-f9ea6132cf43" d="M214.752 212.5H255"/><path class="f8071d35-542a-42c8-922d-96112f895b4b" d="M216.211 217.486l-8.635-4.986 8.635-4.986v9.972z"/></g><g><path class="a7312d9d-ed93-44f7-a7dc-b36b865ba9ee" d="M214.752 122.5h83.175"/><path class="e994cdd7-30de-4b77-b926-320593909b4b" d="M216.211 127.486l-8.635-4.986 8.635-4.986v9.972zM296.468 127.486l8.635-4.986-8.635-4.986v9.972z"/></g><path class="bf36bc38-a124-40f5-abb8-9859b827f5d9" d="M317.603 352.438h190v-50"/><path class="bf36bc38-a124-40f5-abb8-9859b827f5d9" d="M312.603 347.438h190v-50"/><path class="beb2bea2-6fd1-41ae-8740-1b6591f240d5" d="M307.603 292.438h190v50h-190z"/><text class="a4b5abcb-2cc4-48b0-8eca-e6b2ecd5fc12" transform="translate(370.589 320.484)">Applications</text><path class="bf36bc38-a124-40f5-abb8-9859b827f5d9" d="M317.603 247.438h190v-50"/><path class="bf36bc38-a124-40f5-abb8-9859b827f5d9" d="M312.603 242.438h190v-50"/><path class="beb2bea2-6fd1-41ae-8740-1b6591f240d5" d="M307.603 187.438h190v50h-190z"/><text class="a4b5abcb-2cc4-48b0-8eca-e6b2ecd5fc12" transform="translate(370.589 215.484)">Applications</text><path class="bf36bc38-a124-40f5-abb8-9859b827f5d9" d="M317.603 142.438h190v-50"/><path class="bf36bc38-a124-40f5-abb8-9859b827f5d9" d="M312.603 137.438h190v-50"/><path class="beb2bea2-6fd1-41ae-8740-1b6591f240d5" d="M307.603 82.438h190v50h-190z"/><text class="a4b5abcb-2cc4-48b0-8eca-e6b2ecd5fc12" transform="translate(370.589 110.484)">Applications</text><g><path class="f0681cd0-b972-444b-a2c3-f9ea6132cf43" d="M255 212.432l42.927.058"/><path class="f8071d35-542a-42c8-922d-96112f895b4b" d="M296.461 217.475l8.642-4.975-8.628-4.998-.014 9.973z"/></g><g><path class="a7312d9d-ed93-44f7-a7dc-b36b865ba9ee" d="M269.95 197.432l27.977.054"/><path class="e994cdd7-30de-4b77-b926-320593909b4b" d="M296.458 202.47l8.645-4.97-8.626-5.003-.019 9.973z"/></g><g><path class="a7312d9d-ed93-44f7-a7dc-b36b865ba9ee" d="M297.927 227.493l-1.5-.002"/><path class="edc432e9-50d8-4b62-8f90-245038a8582f" d="M293.536 227.488l-50.591-.053"/><path class="a7312d9d-ed93-44f7-a7dc-b36b865ba9ee" d="M241.5 227.434l-1.5-.002v1.5"/><path stroke-dasharray="2.916 2.916" stroke-linecap="round" stroke-linejoin="round" stroke="#151515" fill="none" d="M240 231.848v97.693"/><path class="a7312d9d-ed93-44f7-a7dc-b36b865ba9ee" d="M240 330.999v1.5l-1.5-.003"/><path stroke-dasharray="3.178 3.178" stroke-linecap="round" stroke-linejoin="round" stroke="#151515" fill="none" d="M235.322 332.49l-17.481-.036"/><path class="a7312d9d-ed93-44f7-a7dc-b36b865ba9ee" d="M216.252 332.45l-1.5-.003"/><path class="e994cdd7-30de-4b77-b926-320593909b4b" d="M296.473 222.505l8.63 4.995-8.64 4.977.01-9.972zM216.221 327.464l-8.645 4.968 8.625 5.004.02-9.972z"/></g><g><text transform="translate(668.851 377.517)" font-size="10" fill="#f3f3f3" font-family="RedHatText,&quot;Red Hat Text&quot;,Overpass,&quot;Helvetica Neue&quot;,Arial,sans-serif">166_Data_Grid_0521</text><path fill="none" d="M0 354.5h760v40H0z"/></g></svg>
