<svg id="f4f61688-d5a8-4cec-86f9-0842fc7862ec" data-name="Layer 1" xmlns="http://www.w3.org/2000/svg" width="760" height="686.511" viewBox="0 0 760 686.511">
  <defs>
    <style>
      .ac9b336b-d5b7-4229-bd02-3702621f76ac, .ecae7b45-a42f-4f45-be08-0ca7636ada4b, .fdfefcc3-1c68-4630-944f-5a17f401971c {
        fill: none;
      }

      .ac9b336b-d5b7-4229-bd02-3702621f76ac {
        stroke: #c4c4c4;
        stroke-miterlimit: 10;
      }

      .a81adc5e-8db4-4d06-b175-b0b7770b3a9a {
        fill: #e8e8e8;
      }

      .ad44ae51-98ff-49eb-b444-8218e969a8e7, .b7fa3785-92e4-43a7-b900-c1dc071755b0, .fd68ab4d-d408-4efa-b8d7-4fb8ef5cbfdc {
        font-size: 11px;
      }

      .a36cd7e1-821e-42aa-a5e8-f87e7c87d32b, .ad44ae51-98ff-49eb-b444-8218e969a8e7, .ada8f32a-4226-4d8e-b24a-b94e9704f6a5, .b7fa3785-92e4-43a7-b900-c1dc071755b0, .fd68ab4d-d408-4efa-b8d7-4fb8ef5cbfdc {
        fill: #151515;
      }

      .a36cd7e1-821e-42aa-a5e8-f87e7c87d32b, .b7fa3785-92e4-43a7-b900-c1dc071755b0 {
        font-family: RedHatText-Bold, Red Hat Text, Helvetica Neue, Arial, sans-serif;
        font-weight: 700;
      }

      .ba81e113-0c2c-45f7-88cb-98d2f9440914 {
        fill: #c4c4c4;
      }

      .a36cd7e1-821e-42aa-a5e8-f87e7c87d32b {
        font-size: 14px;
      }

      .ad44ae51-98ff-49eb-b444-8218e969a8e7, .e8af206e-0468-45a5-a6d7-1bc2223ca1ad {
        font-family: RedHatText-Medium, Red Hat Text, Helvetica Neue, Arial, sans-serif;
        font-weight: 500;
      }

      .ecae7b45-a42f-4f45-be08-0ca7636ada4b {
        stroke: #151515;
        stroke-linecap: round;
        stroke-linejoin: round;
      }

      .ac6cc2ac-0e0d-4569-9f10-0c5cb3e6c6a7, .e8af206e-0468-45a5-a6d7-1bc2223ca1ad {
        fill: #fff;
      }

      .a086bf9b-3432-4c36-9e01-f40f2df1e2d9, .fd68ab4d-d408-4efa-b8d7-4fb8ef5cbfdc {
        font-family: RedHatText-Regular, Red Hat Text, Helvetica Neue, Arial, sans-serif;
      }

      .a33027e0-afb8-4159-8597-4afac440e2c0 {
        fill: #06c;
      }

      .e8af206e-0468-45a5-a6d7-1bc2223ca1ad {
        font-size: 12px;
      }

      .a086bf9b-3432-4c36-9e01-f40f2df1e2d9 {
        font-size: 10px;
        fill: #f3f3f3;
      }
    </style>
  </defs>
  <polyline class="ac9b336b-d5b7-4229-bd02-3702621f76ac" points="30 136.5 250 136.5 250 86.5"/>
  <polyline class="ac9b336b-d5b7-4229-bd02-3702621f76ac" points="25 131.5 245 131.5 245 81.5"/>
  <polyline class="ac9b336b-d5b7-4229-bd02-3702621f76ac" points="30 358 250 358 250 308"/>
  <polyline class="ac9b336b-d5b7-4229-bd02-3702621f76ac" points="25 353 245 353 245 303"/>
  <polyline class="ac9b336b-d5b7-4229-bd02-3702621f76ac" points="30 579.5 250 579.5 250 529.5"/>
  <polyline class="ac9b336b-d5b7-4229-bd02-3702621f76ac" points="25 574.5 245 574.5 245 524.5"/>
  <rect class="a81adc5e-8db4-4d06-b175-b0b7770b3a9a" x="368.954" y="260.511" width="220" height="102.5"/>
  <text class="b7fa3785-92e4-43a7-b900-c1dc071755b0" transform="translate(383.954 283.788)">Infinispan</text>
  <rect class="a81adc5e-8db4-4d06-b175-b0b7770b3a9a" x="368.954" y="482.011" width="220" height="102.5"/>
  <text class="b7fa3785-92e4-43a7-b900-c1dc071755b0" transform="translate(383.954 505.288)">Infinispan</text>
  <path class="ba81e113-0c2c-45f7-88cb-98d2f9440914" d="M608,21V225.5H1V21H608m1-1H0V226.5H609V20Z"/>
  <text class="a36cd7e1-821e-42aa-a5e8-f87e7c87d32b" transform="translate(20 50.532)">Stage 1</text>
  <rect class="a81adc5e-8db4-4d06-b175-b0b7770b3a9a" x="368.954" y="39.011" width="220" height="102.5"/>
  <text class="b7fa3785-92e4-43a7-b900-c1dc071755b0" transform="translate(383.954 62.288)">Infinispan</text>
  <rect class="a81adc5e-8db4-4d06-b175-b0b7770b3a9a" x="368.954" y="156.511" width="220" height="50"/>
  <text class="ad44ae51-98ff-49eb-b444-8218e969a8e7" transform="translate(408.72 184.558)">Persistent storage</text>
  <g>
    <line class="ecae7b45-a42f-4f45-be08-0ca7636ada4b" x1="374.334" y1="101.5" x2="240.007" y2="101.5"/>
    <polygon class="ada8f32a-4226-4d8e-b24a-b94e9704f6a5" points="372.875 96.514 381.51 101.5 372.875 106.486 372.875 96.514"/>
  </g>
  <rect class="ac6cc2ac-0e0d-4569-9f10-0c5cb3e6c6a7" x="306.026" y="93.288" width="36.901" height="16.424"/>
  <text class="fd68ab4d-d408-4efa-b8d7-4fb8ef5cbfdc" transform="translate(311.768 104.624)">Read</text>
  <g>
    <line class="ecae7b45-a42f-4f45-be08-0ca7636ada4b" x1="374.334" y1="544.5" x2="240.007" y2="544.5"/>
    <polygon class="ada8f32a-4226-4d8e-b24a-b94e9704f6a5" points="372.875 539.514 381.51 544.5 372.875 549.486 372.875 539.514"/>
  </g>
  <g>
    <rect class="ac6cc2ac-0e0d-4569-9f10-0c5cb3e6c6a7" x="306.026" y="535.7" width="36.901" height="17.601"/>
    <text class="fd68ab4d-d408-4efa-b8d7-4fb8ef5cbfdc" transform="translate(311.768 547.624)">Read</text>
  </g>
  <g>
    <line class="ecae7b45-a42f-4f45-be08-0ca7636ada4b" x1="374.334" y1="323" x2="240.007" y2="323"/>
    <polygon class="ada8f32a-4226-4d8e-b24a-b94e9704f6a5" points="372.875 318.014 381.51 323 372.875 327.986 372.875 318.014"/>
  </g>
  <g>
    <rect class="ac6cc2ac-0e0d-4569-9f10-0c5cb3e6c6a7" x="306.026" y="314.2" width="36.901" height="17.601"/>
    <text class="fd68ab4d-d408-4efa-b8d7-4fb8ef5cbfdc" transform="translate(311.245 326.124)">Write</text>
  </g>
  <rect class="ac6cc2ac-0e0d-4569-9f10-0c5cb3e6c6a7" x="383.954" y="76.5" width="190" height="50"/>
  <text class="ad44ae51-98ff-49eb-b444-8218e969a8e7" transform="translate(462.724 104.547)">Cache</text>
  <g>
    <circle class="a33027e0-afb8-4159-8597-4afac440e2c0" cx="548.954" cy="181.511" r="15"/>
    <text class="e8af206e-0468-45a5-a6d7-1bc2223ca1ad" transform="translate(539.474 184.835)">k/v</text>
  </g>
  <rect class="a81adc5e-8db4-4d06-b175-b0b7770b3a9a" x="20" y="76.5" width="220" height="50"/>
  <text class="ad44ae51-98ff-49eb-b444-8218e969a8e7" transform="translate(97.985 104.547)">Applications</text>
  <path class="ba81e113-0c2c-45f7-88cb-98d2f9440914" d="M608,242.5V447H1V242.5H608m1-1H0V448H609V241.5Z"/>
  <text class="a36cd7e1-821e-42aa-a5e8-f87e7c87d32b" transform="translate(20 272.032)">Stage 2</text>
  <g>
    <polyline class="ecae7b45-a42f-4f45-be08-0ca7636ada4b" points="368.954 413.011 120 413.011 120 357.676"/>
    <polygon class="ada8f32a-4226-4d8e-b24a-b94e9704f6a5" points="124.986 359.135 120 350.5 115.013 359.135 124.986 359.135"/>
  </g>
  <g>
    <polyline class="ecae7b45-a42f-4f45-be08-0ca7636ada4b" points="359.334 393.011 140 393.011 140 348"/>
    <polygon class="ada8f32a-4226-4d8e-b24a-b94e9704f6a5" points="357.875 388.025 366.51 393.011 357.875 397.998 357.875 388.025"/>
  </g>
  <g>
    <rect class="ac6cc2ac-0e0d-4569-9f10-0c5cb3e6c6a7" x="306.026" y="383.901" width="36.901" height="18.221"/>
    <text class="fd68ab4d-d408-4efa-b8d7-4fb8ef5cbfdc" transform="translate(311.768 396.135)">Read</text>
  </g>
  <rect class="ac6cc2ac-0e0d-4569-9f10-0c5cb3e6c6a7" x="383.954" y="298" width="190" height="50"/>
  <text class="ad44ae51-98ff-49eb-b444-8218e969a8e7" transform="translate(442.724 326.047)">Cache</text>
  <g>
    <rect class="a81adc5e-8db4-4d06-b175-b0b7770b3a9a" x="20" y="298" width="220" height="50"/>
    <text class="ad44ae51-98ff-49eb-b444-8218e969a8e7" transform="translate(97.985 326.047)">Applications</text>
  </g>
  <g>
    <circle class="a33027e0-afb8-4159-8597-4afac440e2c0" cx="215" cy="323" r="15"/>
    <text class="e8af206e-0468-45a5-a6d7-1bc2223ca1ad" transform="translate(205.52 326.324)">k/v</text>
  </g>
  <text class="a36cd7e1-821e-42aa-a5e8-f87e7c87d32b" transform="translate(20 493.532)">Stage 3</text>
  <rect class="a81adc5e-8db4-4d06-b175-b0b7770b3a9a" x="368.954" y="599.511" width="220" height="50"/>
  <text class="ad44ae51-98ff-49eb-b444-8218e969a8e7" transform="translate(408.721 627.558)">Persistent storage</text>
  <rect class="ac6cc2ac-0e0d-4569-9f10-0c5cb3e6c6a7" x="383.954" y="519.5" width="190" height="50"/>
  <text class="ad44ae51-98ff-49eb-b444-8218e969a8e7" transform="translate(442.723 547.547)">Cache</text>
  <g>
    <circle class="a33027e0-afb8-4159-8597-4afac440e2c0" cx="548.954" cy="544.5" r="15"/>
    <text class="e8af206e-0468-45a5-a6d7-1bc2223ca1ad" transform="translate(539.474 547.824)">k/v</text>
  </g>
  <g>
    <circle class="a33027e0-afb8-4159-8597-4afac440e2c0" cx="548.954" cy="323" r="15"/>
    <text class="e8af206e-0468-45a5-a6d7-1bc2223ca1ad" transform="translate(539.474 326.324)">k/v</text>
  </g>
  <g>
    <circle class="a33027e0-afb8-4159-8597-4afac440e2c0" cx="548.954" cy="624.511" r="15"/>
    <text class="e8af206e-0468-45a5-a6d7-1bc2223ca1ad" transform="translate(539.474 627.835)">k/v</text>
  </g>
  <g>
    <rect class="a81adc5e-8db4-4d06-b175-b0b7770b3a9a" x="20" y="519.5" width="220" height="50"/>
    <text class="ad44ae51-98ff-49eb-b444-8218e969a8e7" transform="translate(97.985 547.547)">Applications</text>
  </g>
  <g>
    <circle class="a33027e0-afb8-4159-8597-4afac440e2c0" cx="215" cy="544.5" r="15"/>
    <text class="e8af206e-0468-45a5-a6d7-1bc2223ca1ad" transform="translate(205.52 547.824)">k/v</text>
  </g>
  <path class="ba81e113-0c2c-45f7-88cb-98d2f9440914" d="M608,464V668.5H1V464H608m1-1H0V669.5H609V463Z"/>
  <rect class="a81adc5e-8db4-4d06-b175-b0b7770b3a9a" x="368.954" y="378.011" width="220" height="50"/>
  <text class="ad44ae51-98ff-49eb-b444-8218e969a8e7" transform="translate(408.72 406.058)">Persistent storage</text>
  <g>
    <circle class="a33027e0-afb8-4159-8597-4afac440e2c0" cx="548.954" cy="403.011" r="15"/>
    <text class="e8af206e-0468-45a5-a6d7-1bc2223ca1ad" transform="translate(539.474 406.335)">k/v</text>
  </g>
  <g>
    <text class="a086bf9b-3432-4c36-9e01-f40f2df1e2d9" transform="translate(668.422 669.529)">184_Data_Grid_0921</text>
    <rect class="fdfefcc3-1c68-4630-944f-5a17f401971c" y="646.511" width="760" height="40"/>
  </g>
  <g>
    <circle class="ada8f32a-4226-4d8e-b24a-b94e9704f6a5" cx="278.263" cy="393.011" r="11"/>
    <text class="e8af206e-0468-45a5-a6d7-1bc2223ca1ad" transform="translate(274.843 396.335)">2</text>
  </g>
  <g>
    <circle class="ada8f32a-4226-4d8e-b24a-b94e9704f6a5" cx="278.263" cy="544.5" r="11"/>
    <text class="e8af206e-0468-45a5-a6d7-1bc2223ca1ad" transform="translate(274.356 547.824)">4</text>
  </g>
  <g>
    <circle class="ada8f32a-4226-4d8e-b24a-b94e9704f6a5" cx="278.263" cy="101.5" r="11"/>
    <text class="e8af206e-0468-45a5-a6d7-1bc2223ca1ad" transform="translate(276.211 104.824)">1</text>
  </g>
  <g>
    <circle class="ada8f32a-4226-4d8e-b24a-b94e9704f6a5" cx="278.263" cy="323" r="11"/>
    <text class="e8af206e-0468-45a5-a6d7-1bc2223ca1ad" transform="translate(274.621 326.324)">3</text>
  </g>
</svg>
