<svg id="artwork" xmlns="http://www.w3.org/2000/svg" viewBox="0 0 1024 215"><defs><style>.cls-1{fill:#0b2545;}.cls-2{fill:#599fc6;}</style></defs><rect class="cls-1" x="297.24" y="1.98" width="11.9" height="158.12"/><path class="cls-1" d="M395.25,64.88c-7.81-9.45-18.9-14.24-33-14.24-13.77,0-24.73,4.75-32.64,14.11V52.39H318.27v107.7h11.37V94.18c0-10,3-18.08,8.82-24.05s13.87-9,23.82-9,18.1,3.46,24.1,10.28c5.74,6.51,8.65,15,8.65,25.18v63.49h11.14V99.43C406.17,85.15,402.49,73.52,395.25,64.88Z"/><path class="cls-1" d="M431.79,20.7c4.1-5.83,10-8.67,17.93-8.67a35.5,35.5,0,0,1,6.54.63L468.9,15.1V4.37L458.23,2a43.14,43.14,0,0,0-9.17-1c-10.83,0-19.4,4-25.47,11.74-5.58,7.07-8.41,16.2-8.41,27.14V160.09h11.15V63.42h33.86V52.6H426.33V40.86C426.33,32.57,428.17,25.79,431.79,20.7Z"/><rect class="cls-1" x="473.88" y="52.6" width="11.37" height="107.49"/><path class="cls-1" d="M479.46,16.56c-4.93,0-7.53,2.61-7.53,7.54s2.6,7.75,7.53,7.75c5.14,0,7.86-2.68,7.86-7.75S484.6,16.56,479.46,16.56Z"/><path class="cls-1" d="M573.31,64.88c-7.81-9.45-18.91-14.24-33-14.24-13.76,0-24.72,4.75-32.64,14.12V52.39H496.33v107.7h11.36V94.18c0-10,3-18.08,8.83-24.05s13.86-9,23.81-9,18.11,3.46,24.1,10.29c5.75,6.51,8.66,15,8.66,25.18v63.49h11.14V99.43C584.23,85.15,580.55,73.52,573.31,64.88Z"/><path class="cls-1" d="M1012.08,64.88c-7.81-9.45-18.91-14.24-33-14.24-13.76,0-24.72,4.75-32.64,14.12V52.39H935.1v107.7h11.36V94.18c0-10,3-18.08,8.83-24.05s13.87-9,23.81-9,18.11,3.46,24.1,10.29c5.75,6.51,8.66,15,8.66,25.18v63.49H1023V99.43C1023,85.15,1019.32,73.52,1012.08,64.88Z"/><path class="cls-1" d="M600.77,16.56c-4.92,0-7.53,2.61-7.53,7.54s2.61,7.75,7.53,7.75c5.14,0,7.86-2.68,7.86-7.75S605.91,16.56,600.77,16.56Z"/><rect class="cls-1" x="595.2" y="52.6" width="11.36" height="107.49"/><path class="cls-1" d="M671.53,102.18l-21.23-6c-13.62-3.82-20.53-9.67-20.53-17.4,0-10.35,6.4-15.39,19.58-15.39H668c9.24,0,16.22,2.34,20.77,7l.61.62,10-6-.8-1c-6.08-7.6-16-11.45-29.61-11.45H652.72c-22.77,0-34.31,8.66-34.31,25.72,0,13.57,9.1,23,27,28l20.37,5.64c15.43,4.26,23.25,11.25,23.25,20.77,0,11.16-7.9,16.58-24.16,16.58h-17.3c-8.43,0-15.12-2.52-19.89-7.5l-.61-.64-10,6,.78,1c6.3,7.94,16.3,12,29.73,12h10.66c28,0,42.16-9.45,42.16-28.11C700.43,117.64,690.71,107.61,671.53,102.18Z"/><path class="cls-1" d="M813,138.48A56.67,56.67,0,0,1,766.7,163,55.1,55.1,0,0,1,721,139.12l.06,71H709.44V50.07l11.16-.84V75.14s15.3-24.21,46.1-24.21,56.1,25.66,56.1,53.21c0,.42,0,5.24,0,5.64a44.63,44.63,0,1,0,5-23.28l-1.34,2.55-.72-2.79a44.33,44.33,0,0,0-4.41-10.09l-.37-.61.3-.41a56,56,0,0,1,91.42-.84V52.62h11.81V160.23l-11.85,0,0-20.33a56,56,0,0,1-93.08-3.36c-1-1.65-3.66-6.86-3.66-6.86a55.39,55.39,0,0,1-4.8-19.46v-.08s.13-4.51.13-4.74a44.7,44.7,0,1,0-5.07,22.17L807.5,125l.72,2.79c1.21,4.68,4.78,10.7,4.78,10.7"/><rect class="cls-2" x="1" y="1" width="209.17" height="209.17"/><path class="cls-1" d="M116.81,105.58h0a82,82,0,0,0-82-82V46a59.65,59.65,0,0,1,59.59,59.59h0a82,82,0,0,0,82,82.05V165.18A59.66,59.66,0,0,1,116.81,105.58Z"/><path class="cls-1" d="M90.19,127.46a59.69,59.69,0,0,1-55.42,37.72v22.45a81.92,81.92,0,0,0,66.67-34.26A88.52,88.52,0,0,1,90.19,127.46Z"/><path class="cls-1" d="M121,83.71A59.69,59.69,0,0,1,176.4,46V23.54A81.92,81.92,0,0,0,109.73,57.8,88.52,88.52,0,0,1,121,83.71Z"/></svg>