<svg id="artwork" xmlns="http://www.w3.org/2000/svg" viewBox="0 0 1024 300"><defs><style>.cls-1{fill:#0b2545;}</style></defs><rect class="cls-1" x="1" y="2.38" width="16.8" height="223.09"/><path class="cls-1" d="M139.28,91.12C128.27,77.8,112.61,71,92.76,71,73.34,71,57.87,77.73,46.71,91V73.5h-16v152h16v-93c0-14.09,4.19-25.51,12.45-33.93s19.56-12.69,33.6-12.69,25.54,4.88,34,14.51c8.1,9.18,12.21,21.14,12.21,35.53v89.58h15.72V139.89C154.69,119.73,149.5,103.32,139.28,91.12Z"/><path class="cls-1" d="M190.84,28.8c5.78-8.23,14-12.23,25.29-12.23a49.9,49.9,0,0,1,9.23.88l17.83,3.44V5.76L228.14,2.42A60.26,60.26,0,0,0,215.21,1c-15.29,0-27.38,5.58-35.94,16.56-7.87,10-11.86,22.86-11.86,38.3V225.47h15.73V89.07H230.9V73.81H183.14V57.24C183.14,45.55,185.72,36,190.84,28.8Z"/><rect class="cls-1" x="250.23" y="73.81" width="16.04" height="151.66"/><path class="cls-1" d="M258.09,23c-6.95,0-10.62,3.68-10.62,10.63,0,7.15,3.67,10.93,10.62,10.93,7.26,0,11.09-3.78,11.09-10.93C269.18,26.64,265.35,23,258.09,23Z"/><path class="cls-1" d="M390.51,91.12C379.49,77.8,363.84,71,344,71c-19.41,0-34.88,6.7-46.05,19.92V73.5h-16v152h16v-93c0-14.09,4.19-25.5,12.46-33.93S330,85.84,344,85.84s25.55,4.88,34,14.52c8.1,9.19,12.21,21.14,12.21,35.53v89.58h15.72V139.89C405.92,119.73,400.73,103.32,390.51,91.12Z"/><path class="cls-1" d="M1009.59,91.12C998.57,77.8,982.92,71,963.06,71c-19.41,0-34.88,6.7-46,19.92V73.5H901v152h16v-93c0-14.09,4.19-25.5,12.46-33.93s19.56-12.7,33.59-12.7,25.55,4.88,34,14.52c8.1,9.19,12.21,21.14,12.21,35.53v89.58H1025V139.89C1025,119.73,1019.81,103.32,1009.59,91.12Z"/><path class="cls-1" d="M429.26,23c-6.95,0-10.63,3.68-10.63,10.63,0,7.15,3.68,10.93,10.63,10.93,7.26,0,11.09-3.78,11.09-10.93C440.35,26.64,436.52,23,429.26,23Z"/><rect class="cls-1" x="421.4" y="73.81" width="16.03" height="151.66"/><path class="cls-1" d="M529.1,143.75l-30-8.42c-19.22-5.38-29-13.64-29-24.54,0-14.61,9-21.72,27.63-21.72h26.27c13,0,22.88,3.31,29.3,9.83l.86.87,14.11-8.42L567.22,90c-8.57-10.71-22.63-16.14-41.77-16.14H502.56c-32.13,0-48.42,12.21-48.42,36.29,0,19.14,12.84,32.42,38.16,39.46L521,157.51c21.76,6,32.8,15.88,32.8,29.31,0,15.74-11.15,23.39-34.08,23.39H495.34c-11.89,0-21.33-3.56-28.06-10.58l-.86-.9L452.3,207.2l1.11,1.4c8.87,11.19,23,16.87,41.93,16.87h15.05c39.47,0,59.48-13.34,59.48-39.66C569.87,165.57,556.15,151.42,529.1,143.75Z"/><path class="cls-1" d="M728.71,195a80,80,0,0,1-65.33,34.57,77.71,77.71,0,0,1-64.53-33.67l.08,100.25H582.58V70.23L598.33,69v36.57s21.58-34.16,65-34.16,79.14,36.2,79.14,75.07c0,.6,0,7.4,0,8a62.94,62.94,0,1,0,7-32.85l-1.89,3.6-1-3.93a62.09,62.09,0,0,0-6.23-14.23l-.52-.87.42-.58a79,79,0,0,1,129-1.19V73.83H886V225.66l-16.73,0,.06-28.69A79,79,0,0,1,738,192.2c-1.46-2.34-5.17-9.68-5.17-9.68A78.5,78.5,0,0,1,726,155.06V155s.18-6.37.19-6.69a63.07,63.07,0,1,0-7.15,31.28l1.88-3.6,1,3.94c1.71,6.6,6.76,15.1,6.76,15.1"/></svg>